<?xml version="1.0" encoding="UTF-8" standalone="no"?>
<!-- Created with Inkscape (http://www.inkscape.org/) -->

<svg
   xmlns:dc="http://purl.org/dc/elements/1.1/"
   xmlns:cc="http://creativecommons.org/ns#"
   xmlns:rdf="http://www.w3.org/1999/02/22-rdf-syntax-ns#"
   xmlns:svg="http://www.w3.org/2000/svg"
   xmlns="http://www.w3.org/2000/svg"
   xmlns:sodipodi="http://sodipodi.sourceforge.net/DTD/sodipodi-0.dtd"
   xmlns:inkscape="http://www.inkscape.org/namespaces/inkscape"
   width="75.388824mm"
   height="49.779564mm"
   viewBox="0 0 75.388824 49.779564"
   version="1.1"
   id="svg4712"
   inkscape:version="0.92.1 r15371"
   sodipodi:docname="graphics.svg">
  <defs
     id="defs4706" />
  <sodipodi:namedview
     id="base"
     pagecolor="#ffffff"
     bordercolor="#666666"
     borderopacity="1.0"
     inkscape:pageopacity="0.0"
     inkscape:pageshadow="2"
     inkscape:zoom="1.2919118"
     inkscape:cx="194.28571"
     inkscape:cy="2.8571429"
     inkscape:document-units="mm"
     inkscape:current-layer="layer1"
     showgrid="false"
     fit-margin-top="0"
     fit-margin-left="0"
     fit-margin-right="0"
     fit-margin-bottom="0"
     inkscape:window-width="1366"
     inkscape:window-height="745"
     inkscape:window-x="-8"
     inkscape:window-y="-8"
     inkscape:window-maximized="1" />
  <metadata
     id="metadata4709">
    <rdf:RDF>
      <cc:Work
         rdf:about="">
        <dc:format>image/svg+xml</dc:format>
        <dc:type
           rdf:resource="http://purl.org/dc/dcmitype/StillImage" />
        <dc:title></dc:title>
      </cc:Work>
    </rdf:RDF>
  </metadata>
  <g
     inkscape:label="Layer 1"
     inkscape:groupmode="layer"
     id="layer1"
     transform="translate(294.71822,-33.985219)">
    <g
       aria-label="Responsibility"
       transform="translate(-491.51574,-115.12098)"
       style="font-style:normal;font-variant:normal;font-weight:normal;font-stretch:normal;font-size:2.82222223px;line-height:1.25;font-family:'Latin Modern Mono Light';-inkscape-font-specification:'Latin Modern Mono Light, ';letter-spacing:0px;word-spacing:0px;display:inline;opacity:1;fill:#000000;fill-opacity:1;stroke:none;stroke-width:0.26458332"
       id="flowRoot4592">
      <path
         d="m 225.83474,150.58787 c 0,-0.0649 -0.048,-0.0649 -0.0705,-0.0649 -0.0226,0 -0.0677,0 -0.0706,0.0593 0,0.031 -0.0226,0.16087 -0.0847,0.16087 -0.0931,0 -0.11007,-0.14394 -0.11007,-0.31891 0,-0.17498 0,-0.20038 -0.0254,-0.26247 -0.0339,-0.079 -0.096,-0.13547 -0.16933,-0.19191 0.22013,-0.12418 0.27093,-0.29069 0.27093,-0.40358 0,-0.23707 -0.21167,-0.46002 -0.53622,-0.46002 h -0.51647 c -0.0339,0 -0.0875,0 -0.0875,0.0621 0,0.0564 0.0564,0.0564 0.0875,0.0564 h 0.1016 v 1.48731 h -0.1016 c -0.0339,0 -0.0875,0 -0.0875,0.0593 0,0.0593 0.0564,0.0593 0.0875,0.0593 h 0.34713 c 0.031,0 0.0875,0 0.0875,-0.0593 0,-0.0593 -0.0536,-0.0593 -0.0875,-0.0593 h -0.1016 v -0.68297 h 0.25683 c 0.0593,0 0.15522,0 0.25682,0.0875 0.0705,0.0677 0.0734,0.13829 0.0734,0.27094 0,0.18062 0,0.26811 0.0564,0.36689 0.0452,0.0705 0.11571,0.10724 0.20038,0.10724 0.16369,0 0.22295,-0.17498 0.22295,-0.27375 z m -0.40075,-1.02165 c 0,0.15522 -0.13829,0.34149 -0.42616,0.34149 h -0.23989 v -0.68298 h 0.23989 c 0.29069,0 0.42616,0.19191 0.42616,0.34149 z"
         style="stroke-width:0.26458332"
         id="path4698" />
      <path
         d="m 227.14818,150.54271 c 0,-0.0536 -0.0593,-0.0536 -0.0706,-0.0536 -0.0339,0 -0.0508,0.003 -0.0621,0.031 -0.079,0.1778 -0.24835,0.20885 -0.33866,0.20885 -0.23142,0 -0.46285,-0.15523 -0.51929,-0.45438 h 0.90311 c 0.048,0 0.0875,0 0.0875,-0.079 0,-0.31609 -0.17498,-0.58985 -0.53622,-0.58985 -0.3302,0 -0.59831,0.2794 -0.59831,0.62089 0,0.34149 0.28222,0.62089 0.64346,0.62089 0.35842,0 0.49107,-0.23707 0.49107,-0.3048 z m -0.14393,-0.38664 h -0.84385 c 0.0508,-0.26247 0.23425,-0.4318 0.45156,-0.4318 0.16369,0 0.36124,0.0762 0.39229,0.4318 z"
         style="stroke-width:0.26458332"
         id="path4700" />
      <path
         d="m 228.61684,150.49473 c 0,-0.2794 -0.3556,-0.33584 -0.44309,-0.34995 l -0.20038,-0.0339 c -0.0931,-0.0141 -0.30762,-0.0649 -0.30762,-0.19191 0,-0.0819 0.0959,-0.19473 0.40075,-0.19473 0.26811,0 0.31045,0.10442 0.32456,0.22013 0.006,0.0254 0.0197,0.0423 0.0649,0.0423 0.0734,0 0.0734,-0.048 0.0734,-0.0903 v -0.20038 c 0,-0.0339 0,-0.0903 -0.0564,-0.0903 -0.048,0 -0.0564,0.0254 -0.0705,0.0734 -0.1524,-0.0734 -0.27658,-0.0734 -0.3302,-0.0734 -0.4572,0 -0.52494,0.21731 -0.52494,0.31327 0,0.24835 0.29634,0.29351 0.55034,0.3302 0.15522,0.0254 0.40075,0.079 0.40075,0.24553 0,0.11854 -0.11289,0.23425 -0.40357,0.23425 -0.14676,0 -0.32174,-0.0367 -0.40923,-0.31045 -0.0113,-0.0198 -0.0254,-0.0339 -0.0649,-0.0339 -0.0734,0 -0.0734,0.048 -0.0734,0.0903 v 0.28222 c 0,0.0339 0,0.0903 0.0593,0.0903 0.0198,0 0.0508,-0.006 0.0903,-0.12982 0.16934,0.12418 0.31891,0.12982 0.39511,0.12982 0.43463,0 0.52494,-0.22013 0.52494,-0.35278 z"
         style="stroke-width:0.26458332"
         id="path4702" />
      <path
         d="m 230.18427,150.22944 c 0,-0.34149 -0.24553,-0.61524 -0.53904,-0.61524 -0.13265,0 -0.25682,0.0508 -0.40076,0.18062 0,-0.13264 -0.003,-0.16369 -0.0875,-0.16369 h -0.21166 c -0.0339,0 -0.0903,0 -0.0903,0.0621 0,0.0565 0.0564,0.0565 0.0875,0.0565 h 0.16086 v 1.60866 h -0.15804 c -0.0339,0 -0.0903,0 -0.0903,0.0621 0,0.0593 0.0564,0.0593 0.0875,0.0593 h 0.46284 c 0.031,0 0.0875,0 0.0875,-0.0593 0,-0.0621 -0.0564,-0.0621 -0.0903,-0.0621 h -0.15805 v -0.70273 c 0.16369,0.16651 0.28223,0.19191 0.36971,0.19191 0.30198,0 0.57009,-0.26529 0.57009,-0.61807 z m -0.14111,0 c 0,0.29916 -0.22013,0.49954 -0.43744,0.49954 -0.24836,0 -0.36125,-0.27658 -0.36125,-0.42616 v -0.21449 c 0,-0.18626 0.18345,-0.3556 0.38383,-0.3556 0.23142,0 0.41486,0.22578 0.41486,0.49671 z"
         style="stroke-width:0.26458332"
         id="path4704" />
      <path
         d="m 231.60778,150.22944 c 0,-0.34713 -0.25965,-0.62371 -0.57009,-0.62371 -0.31045,0 -0.57009,0.27658 -0.57009,0.62371 0,0.35278 0.26529,0.61807 0.57009,0.61807 0.3048,0 0.57009,-0.26811 0.57009,-0.61807 z m -0.14394,-0.0198 c 0,0.28786 -0.19755,0.51929 -0.42615,0.51929 -0.23143,0 -0.42616,-0.23143 -0.42616,-0.51929 0,-0.28505 0.20602,-0.48542 0.42616,-0.48542 0.22295,0 0.42615,0.20037 0.42615,0.48542 z"
         style="stroke-width:0.26458332"
         id="path4706" />
      <path
         d="m 233.22037,150.77131 c 0,-0.0593 -0.0565,-0.0593 -0.0903,-0.0593 h -0.15805 v -0.70837 c 0,-0.27094 -0.13547,-0.38947 -0.34995,-0.38947 -0.18345,0 -0.30763,0.0931 -0.41205,0.19473 0,-0.14111 0,-0.1778 -0.0875,-0.1778 h -0.21166 c -0.0339,0 -0.0903,0 -0.0903,0.0621 0,0.0565 0.0565,0.0565 0.0875,0.0565 h 0.16087 v 0.96237 h -0.15804 c -0.0339,0 -0.0903,0 -0.0903,0.0593 0,0.0593 0.0565,0.0593 0.0875,0.0593 h 0.46285 c 0.031,0 0.0875,0 0.0875,-0.0593 0,-0.0593 -0.0565,-0.0593 -0.0903,-0.0593 h -0.15805 v -0.54751 c 0,-0.31326 0.23425,-0.4318 0.39511,-0.4318 0.17498,0 0.22578,0.0903 0.22578,0.28787 v 0.69144 h -0.14393 c -0.0339,0 -0.0903,0 -0.0903,0.0593 0,0.0593 0.0593,0.0593 0.0903,0.0593 h 0.44591 c 0.031,0 0.0875,0 0.0875,-0.0593 z"
         style="stroke-width:0.26458332"
         id="path4708" />
      <path
         d="m 234.54791,150.49473 c 0,-0.2794 -0.3556,-0.33584 -0.44309,-0.34995 l -0.20037,-0.0339 c -0.0931,-0.0141 -0.30763,-0.0649 -0.30763,-0.19191 0,-0.0819 0.096,-0.19473 0.40076,-0.19473 0.26811,0 0.31044,0.10442 0.32456,0.22013 0.006,0.0254 0.0198,0.0423 0.0649,0.0423 0.0734,0 0.0734,-0.048 0.0734,-0.0903 v -0.20038 c 0,-0.0339 0,-0.0903 -0.0564,-0.0903 -0.048,0 -0.0564,0.0254 -0.0706,0.0734 -0.1524,-0.0734 -0.27657,-0.0734 -0.3302,-0.0734 -0.4572,0 -0.52493,0.21731 -0.52493,0.31327 0,0.24835 0.29633,0.29351 0.55033,0.3302 0.15523,0.0254 0.40076,0.079 0.40076,0.24553 0,0.11854 -0.11289,0.23425 -0.40358,0.23425 -0.14675,0 -0.32173,-0.0367 -0.40922,-0.31045 -0.0113,-0.0198 -0.0254,-0.0339 -0.0649,-0.0339 -0.0734,0 -0.0734,0.048 -0.0734,0.0903 v 0.28222 c 0,0.0339 0,0.0903 0.0593,0.0903 0.0197,0 0.0508,-0.006 0.0903,-0.12982 0.16933,0.12418 0.31891,0.12982 0.39511,0.12982 0.43462,0 0.52493,-0.22013 0.52493,-0.35278 z"
         style="stroke-width:0.26458332"
         id="path4710" />
      <path
         d="m 236.01939,150.77131 c 0,-0.0593 -0.0593,-0.0593 -0.0903,-0.0593 h -0.33584 v -0.9906 c 0,-0.0677 -0.0113,-0.0903 -0.0875,-0.0903 h -0.41487 c -0.031,0 -0.0903,0 -0.0903,0.0593 0,0.0593 0.0593,0.0593 0.0903,0.0593 h 0.36125 v 0.96237 h -0.38383 c -0.0339,0 -0.0903,0 -0.0903,0.0593 0,0.0593 0.0593,0.0593 0.0903,0.0593 h 0.86078 c 0.031,0 0.0903,0 0.0903,-0.0593 z m -0.41486,-1.52964 c 0,-0.0677 -0.0508,-0.11854 -0.11571,-0.11854 -0.0649,0 -0.11572,0.0508 -0.11572,0.11854 0,0.0649 0.0508,0.11571 0.11572,0.11571 0.0649,0 0.11571,-0.0508 0.11571,-0.11571 z"
         style="stroke-width:0.26458332"
         id="path4712" />
      <path
         d="m 237.59812,150.22944 c 0,-0.34149 -0.24553,-0.61524 -0.53905,-0.61524 -0.13264,0 -0.25682,0.0508 -0.40075,0.18062 v -0.59831 c 0,-0.0677 -0.0113,-0.0903 -0.0875,-0.0903 h -0.21167 c -0.0339,0 -0.0903,0 -0.0903,0.0621 0,0.0564 0.0565,0.0564 0.0875,0.0564 h 0.16087 v 1.51554 c 0,0.0423 0,0.0903 0.0734,0.0903 0.0677,0 0.0677,-0.048 0.0677,-0.17498 0.16369,0.16651 0.28222,0.19191 0.36971,0.19191 0.30198,0 0.57009,-0.26529 0.57009,-0.61807 z m -0.14111,0 c 0,0.29916 -0.22014,0.49954 -0.43745,0.49954 -0.24835,0 -0.36124,-0.27658 -0.36124,-0.42616 v -0.21449 c 0,-0.18626 0.18344,-0.3556 0.38382,-0.3556 0.23142,0 0.41487,0.22578 0.41487,0.49671 z"
         style="stroke-width:0.26458332"
         id="path4714" />
      <path
         d="m 238.98493,150.77131 c 0,-0.0593 -0.0593,-0.0593 -0.0903,-0.0593 h -0.33584 v -0.9906 c 0,-0.0677 -0.0113,-0.0903 -0.0875,-0.0903 h -0.41487 c -0.031,0 -0.0903,0 -0.0903,0.0593 0,0.0593 0.0593,0.0593 0.0903,0.0593 h 0.36125 v 0.96237 h -0.38383 c -0.0339,0 -0.0903,0 -0.0903,0.0593 0,0.0593 0.0593,0.0593 0.0903,0.0593 h 0.86078 c 0.031,0 0.0903,0 0.0903,-0.0593 z m -0.41486,-1.52964 c 0,-0.0677 -0.0508,-0.11854 -0.11572,-0.11854 -0.0649,0 -0.11571,0.0508 -0.11571,0.11854 0,0.0649 0.0508,0.11571 0.11571,0.11571 0.0649,0 0.11572,-0.0508 0.11572,-0.11571 z"
         style="stroke-width:0.26458332"
         id="path4716" />
      <path
         d="m 240.50439,150.77131 c 0,-0.0593 -0.0536,-0.0593 -0.0875,-0.0593 h -0.40922 v -1.51553 c 0,-0.0677 -0.0141,-0.0903 -0.0875,-0.0903 h -0.46284 c -0.0339,0 -0.0903,0 -0.0903,0.0621 0,0.0564 0.0593,0.0564 0.0875,0.0564 h 0.40923 v 1.48731 h -0.4064 c -0.0339,0 -0.0903,0 -0.0903,0.0593 0,0.0593 0.0593,0.0593 0.0875,0.0593 h 0.96238 c 0.031,0 0.0875,0 0.0875,-0.0593 z"
         style="stroke-width:0.26458332"
         id="path4718" />
      <path
         d="m 241.95047,150.77131 c 0,-0.0593 -0.0593,-0.0593 -0.0903,-0.0593 h -0.33584 v -0.9906 c 0,-0.0677 -0.0113,-0.0903 -0.0875,-0.0903 h -0.41487 c -0.031,0 -0.0903,0 -0.0903,0.0593 0,0.0593 0.0593,0.0593 0.0903,0.0593 h 0.36124 v 0.96237 h -0.38382 c -0.0339,0 -0.0903,0 -0.0903,0.0593 0,0.0593 0.0593,0.0593 0.0903,0.0593 h 0.86078 c 0.031,0 0.0903,0 0.0903,-0.0593 z m -0.41487,-1.52964 c 0,-0.0677 -0.0508,-0.11854 -0.11571,-0.11854 -0.0649,0 -0.11571,0.0508 -0.11571,0.11854 0,0.0649 0.0508,0.11571 0.11571,0.11571 0.0649,0 0.11571,-0.0508 0.11571,-0.11571 z"
         style="stroke-width:0.26458332"
         id="path4720" />
      <path
         d="m 243.41631,150.49191 c 0,-0.0395 0,-0.0847 -0.0734,-0.0847 -0.0706,0 -0.0706,0.0452 -0.0706,0.0819 -0.003,0.20602 -0.18909,0.23989 -0.26529,0.23989 -0.254,0 -0.254,-0.17216 -0.254,-0.254 v -0.72531 h 0.508 c 0.031,0 0.0875,0 0.0875,-0.0565 0,-0.0621 -0.0536,-0.0621 -0.0875,-0.0621 h -0.508 v -0.26811 c 0,-0.0395 0,-0.0903 -0.0705,-0.0903 -0.0706,0 -0.0706,0.048 -0.0706,0.0903 v 0.26811 h -0.28504 c -0.0339,0 -0.0903,0 -0.0903,0.0621 0,0.0565 0.0564,0.0565 0.0875,0.0565 h 0.28786 v 0.74224 c 0,0.25964 0.18345,0.3556 0.381,0.3556 0.20038,0 0.42334,-0.11289 0.42334,-0.3556 z"
         style="stroke-width:0.26458332"
         id="path4722" />
      <path
         d="m 245.04865,149.69322 c 0,-0.0621 -0.0536,-0.0621 -0.0875,-0.0621 h -0.34148 c -0.031,0 -0.0875,0 -0.0875,0.0593 0,0.0593 0.0536,0.0593 0.0875,0.0593 h 0.11288 l -0.32455,0.98213 -0.37253,-0.98213 h 0.11571 c 0.031,0 0.0875,0 0.0875,-0.0565 0,-0.0621 -0.0536,-0.0621 -0.0875,-0.0621 h -0.34149 c -0.0339,0 -0.0875,0 -0.0875,0.0621 0,0.0565 0.0564,0.0565 0.0875,0.0565 h 0.0988 c 0,0 0.44026,1.10913 0.43744,1.1176 0,0 -0.079,0.25117 -0.11853,0.32455 -0.0903,0.17216 -0.15805,0.18345 -0.24271,0.18345 -0.0169,0 -0.0339,-0.0367 -0.0339,-0.0367 0,0 0.0169,-0.0254 0.0169,-0.0565 0,-0.0564 -0.0395,-0.0959 -0.0959,-0.0959 -0.0621,0 -0.0988,0.0423 -0.0988,0.0988 0,0.10725 0.0875,0.21167 0.21167,0.21167 0.26246,0 0.40075,-0.36689 0.41204,-0.39793 l 0.4572,-1.34902 h 0.10724 c 0.031,0 0.0875,0 0.0875,-0.0565 z"
         style="stroke-width:0.26458332"
         id="path4724" />
    </g>
    <g
       aria-label="Self-management"
       transform="matrix(0.26458333,0,0,0.26458333,-465.71072,-108.20532)"
       style="font-style:normal;font-variant:normal;font-weight:normal;font-stretch:normal;font-size:10.66666698px;line-height:1.25;font-family:'Latin Modern Mono Light';-inkscape-font-specification:'Latin Modern Mono Light, ';letter-spacing:0px;word-spacing:0px;display:inline;opacity:1;fill:#000000;fill-opacity:1;stroke:none"
       id="flowRoot4600">
      <path
         d="m 853.00267,568.34886 c 0,-0.66133 -0.37334,-1.09866 -0.50134,-1.23733 -0.43733,-0.42667 -0.72533,-0.49067 -1.55733,-0.68267 l -0.896,-0.20266 c -0.512,-0.14934 -0.96,-0.576 -0.96,-1.14134 0,-0.61866 0.576,-1.20533 1.42933,-1.20533 1.35467,0 1.568,1.09867 1.65334,1.52533 0.032,0.128 0.11733,0.16 0.256,0.16 0.27733,0 0.27733,-0.18133 0.27733,-0.34133 v -1.45067 c 0,-0.128 0,-0.34133 -0.224,-0.34133 -0.18133,0 -0.224,0.17067 -0.34133,0.59733 -0.56534,-0.48 -1.13067,-0.59733 -1.61067,-0.59733 -1.152,0 -1.94133,0.81067 -1.94133,1.696 0,0.69333 0.48,1.376 1.344,1.62133 l 1.25866,0.29867 c 0.34134,0.0747 1.312,0.32 1.312,1.35467 0,0.61866 -0.512,1.33333 -1.45066,1.33333 -0.33067,0 -0.896,-0.0533 -1.35467,-0.36267 -0.50133,-0.32 -0.55467,-0.82133 -0.56533,-1.04533 -0.0107,-0.128 -0.0213,-0.27733 -0.26667,-0.27733 -0.27733,0 -0.27733,0.18133 -0.27733,0.34133 v 1.45067 c 0,0.128 0,0.34133 0.224,0.34133 0.18133,0 0.224,-0.13867 0.34133,-0.576 0.55467,0.416 1.20533,0.576 1.888,0.576 1.20533,0 1.96267,-0.90667 1.96267,-1.83467 z"
         style=""
         id="path4667" />
      <path
         d="m 858.51083,568.9782 c 0,-0.20267 -0.224,-0.20267 -0.26666,-0.20267 -0.128,0 -0.192,0.0107 -0.23467,0.11733 -0.29867,0.672 -0.93867,0.78934 -1.28,0.78934 -0.87467,0 -1.74933,-0.58667 -1.96267,-1.71734 h 3.41334 c 0.18133,0 0.33066,0 0.33066,-0.29866 0,-1.19467 -0.66133,-2.22934 -2.02666,-2.22934 -1.248,0 -2.26134,1.056 -2.26134,2.34667 0,1.29067 1.06667,2.34667 2.432,2.34667 1.35467,0 1.856,-0.896 1.856,-1.152 z m -0.544,-1.46134 h -3.18933 c 0.192,-0.992 0.88533,-1.632 1.70667,-1.632 0.61866,0 1.36533,0.288 1.48266,1.632 z"
         style=""
         id="path4669" />
      <path
         d="m 864.15767,569.8422 c 0,-0.224 -0.20267,-0.224 -0.33067,-0.224 h -1.54667 v -5.728 c 0,-0.256 -0.0533,-0.34134 -0.33066,-0.34134 h -1.74934 c -0.128,0 -0.34133,0 -0.34133,0.23467 0,0.21333 0.224,0.21333 0.33067,0.21333 h 1.54666 v 5.62134 h -1.536 c -0.128,0 -0.34133,0 -0.34133,0.224 0,0.224 0.224,0.224 0.33067,0.224 h 3.63733 c 0.11733,0 0.33067,0 0.33067,-0.224 z"
         style=""
         id="path4671" />
      <path
         d="m 869.43117,564.02886 c 0,-0.544 -0.8,-0.544 -0.94934,-0.544 -0.82133,0 -1.62133,0.45867 -1.62133,1.35467 v 0.69333 h -1.216 c -0.128,0 -0.34133,0 -0.34133,0.23467 0,0.21333 0.21333,0.21333 0.33066,0.21333 h 1.22667 v 3.63734 h -1.22667 c -0.11733,0 -0.34133,0 -0.34133,0.21333 0,0.23467 0.224,0.23467 0.34133,0.23467 h 2.98667 c 0.11733,0 0.34133,0 0.34133,-0.224 0,-0.224 -0.224,-0.224 -0.34133,-0.224 h -1.22667 v -3.63734 h 1.46134 c 0.11733,0 0.33066,0 0.33066,-0.21333 0,-0.23467 -0.20266,-0.23467 -0.33066,-0.23467 h -1.46134 v -0.62933 c 0,-0.96 0.81067,-0.97067 1.29067,-0.97067 0,0.14934 0.0853,0.48 0.37333,0.48 0.17067,0 0.37334,-0.13866 0.37334,-0.384 z"
         style=""
         id="path4673" />
      <path
         d="m 875.37667,566.8022 c 0,-0.27734 -0.30934,-0.27734 -0.416,-0.27734 H 871.462 c -0.10667,0 -0.416,0 -0.416,0.27734 0,0.27733 0.30933,0.27733 0.416,0.27733 h 3.49867 c 0.10666,0 0.416,0 0.416,-0.27733 z"
         style=""
         id="path4675" />
      <path
         d="m 881.5035,569.8422 c 0,-0.224 -0.18133,-0.224 -0.608,-0.224 v -2.784 c 0,-0.20267 -0.0213,-1.36534 -0.88533,-1.36534 -0.30933,0 -0.72533,0.128 -1.12,0.68267 -0.224,-0.50133 -0.49067,-0.68267 -0.81067,-0.68267 -0.33066,0 -0.608,0.13867 -1.024,0.52267 -0.032,-0.45867 -0.20266,-0.45867 -0.352,-0.45867 h -0.352 c -0.11733,0 -0.34133,0 -0.34133,0.224 0,0.224 0.18133,0.224 0.608,0.224 v 3.63734 c -0.42667,0 -0.608,0 -0.608,0.224 0,0.224 0.23467,0.224 0.34133,0.224 h 0.97067 c 0.128,0 0.34133,0 0.34133,-0.224 0,-0.224 -0.18133,-0.224 -0.608,-0.224 v -2.09067 c 0,-1.06667 0.49067,-1.61067 0.98134,-1.61067 0.288,0 0.49066,0.192 0.49066,1.01334 v 2.688 c -0.26666,0 -0.45866,0 -0.45866,0.224 0,0.224 0.224,0.224 0.34133,0.224 h 0.82133 c 0.128,0 0.34134,0 0.34134,-0.224 0,-0.224 -0.18134,-0.224 -0.608,-0.224 v -2.09067 c 0,-1.06667 0.50133,-1.61067 1.00266,-1.61067 0.288,0 0.49067,0.192 0.49067,1.01334 v 2.688 c -0.26667,0 -0.45867,0 -0.45867,0.224 0,0.224 0.224,0.224 0.34134,0.224 h 0.82133 c 0.11733,0 0.34133,0 0.34133,-0.224 z"
         style=""
         id="path4677" />
      <path
         d="m 887.20367,569.83153 c 0,-0.21333 -0.21334,-0.21333 -0.34134,-0.21333 -0.43733,0 -0.59733,-0.064 -0.768,-0.128 v -2.45334 c 0,-0.74666 -0.576,-1.6 -2.06933,-1.6 -0.43733,0 -1.49333,0 -1.49333,0.69334 0,0.256 0.18133,0.39466 0.384,0.39466 0.128,0 0.37333,-0.0747 0.384,-0.39466 0,-0.20267 0.40533,-0.24534 0.736,-0.24534 0.90666,0 1.51466,0.384 1.51466,1.344 -1.97333,0.032 -3.30666,0.52267 -3.30666,1.536 0,0.71467 0.66133,1.36534 1.71733,1.36534 0.384,0 1.04533,-0.0747 1.632,-0.45867 0.27733,0.39467 0.77867,0.39467 1.16267,0.39467 0.23466,0 0.448,0 0.448,-0.23467 z m -1.65334,-1.13067 c 0,0.288 0,0.55467 -0.49066,0.77867 -0.416,0.20267 -0.93867,0.20267 -1.024,0.20267 -0.75734,0 -1.248,-0.43734 -1.248,-0.91734 0,-0.56533 0.97066,-1.056 2.76266,-1.10933 z"
         style=""
         id="path4679" />
      <path
         d="m 892.66917,569.8422 c 0,-0.224 -0.21334,-0.224 -0.34134,-0.224 h -0.59733 v -2.67734 c 0,-1.024 -0.512,-1.472 -1.32267,-1.472 -0.69333,0 -1.16266,0.352 -1.55733,0.736 0,-0.53333 0,-0.672 -0.33067,-0.672 h -0.8 c -0.128,0 -0.34133,0 -0.34133,0.23467 0,0.21333 0.21333,0.21333 0.33067,0.21333 h 0.608 v 3.63734 h -0.59734 c -0.128,0 -0.34133,0 -0.34133,0.224 0,0.224 0.21333,0.224 0.33067,0.224 h 1.74933 c 0.11733,0 0.33067,0 0.33067,-0.224 0,-0.224 -0.21334,-0.224 -0.34134,-0.224 h -0.59733 v -2.06934 c 0,-1.184 0.88533,-1.632 1.49333,-1.632 0.66134,0 0.85334,0.34134 0.85334,1.088 v 2.61334 h -0.544 c -0.128,0 -0.34134,0 -0.34134,0.224 0,0.224 0.224,0.224 0.34134,0.224 h 1.68533 c 0.11733,0 0.33067,0 0.33067,-0.224 z"
         style=""
         id="path4681" />
      <path
         d="m 898.412,569.83153 c 0,-0.21333 -0.21333,-0.21333 -0.34133,-0.21333 -0.43733,0 -0.59733,-0.064 -0.768,-0.128 v -2.45334 c 0,-0.74666 -0.576,-1.6 -2.06933,-1.6 -0.43734,0 -1.49334,0 -1.49334,0.69334 0,0.256 0.18134,0.39466 0.384,0.39466 0.128,0 0.37334,-0.0747 0.384,-0.39466 0,-0.20267 0.40534,-0.24534 0.736,-0.24534 0.90667,0 1.51467,0.384 1.51467,1.344 -1.97333,0.032 -3.30667,0.52267 -3.30667,1.536 0,0.71467 0.66134,1.36534 1.71734,1.36534 0.384,0 1.04533,-0.0747 1.632,-0.45867 0.27733,0.39467 0.77866,0.39467 1.16266,0.39467 0.23467,0 0.448,0 0.448,-0.23467 z m -1.65333,-1.13067 c 0,0.288 0,0.55467 -0.49067,0.77867 -0.416,0.20267 -0.93866,0.20267 -1.024,0.20267 -0.75733,0 -1.248,-0.43734 -1.248,-0.91734 0,-0.56533 0.97067,-1.056 2.76267,-1.10933 z"
         style=""
         id="path4683" />
      <path
         d="m 903.8455,565.89553 c 0,-0.21333 -0.192,-0.48 -0.69333,-0.48 -0.11733,0 -0.62933,0.0107 -1.16267,0.40533 -0.23466,-0.16 -0.59733,-0.352 -1.07733,-0.352 -0.97067,0 -1.70667,0.768 -1.70667,1.65334 0,0.448 0.17067,0.77866 0.37334,1.04533 -0.14934,0.224 -0.24534,0.448 -0.24534,0.74667 0,0.36266 0.13867,0.608 0.30934,0.832 -0.864,0.52266 -0.87467,1.22666 -0.87467,1.33333 0,0.90667 1.12,1.51467 2.464,1.51467 1.344,0 2.464,-0.61867 2.464,-1.51467 0,-0.37333 -0.192,-0.88533 -0.704,-1.16267 -0.13867,-0.0747 -0.58667,-0.29866 -1.54667,-0.29866 h -0.77866 c -0.0853,0 -0.23467,-0.0107 -0.33067,-0.0213 -0.192,0 -0.27733,-0.0107 -0.43733,-0.20266 -0.13867,-0.18134 -0.16,-0.45867 -0.16,-0.45867 0,-0.0533 0.032,-0.23467 0.128,-0.48 0.14933,0.096 0.53333,0.33067 1.04533,0.33067 0.94933,0 1.70667,-0.74667 1.70667,-1.664 0,-0.30934 -0.096,-0.608 -0.33067,-1.00267 0.352,-0.192 0.62933,-0.24533 0.88533,-0.26667 0.064,0.32 0.256,0.384 0.34134,0.384 0.13866,0 0.33066,-0.096 0.33066,-0.34133 z m -1.76,1.22667 c 0,0.69333 -0.544,1.22666 -1.17333,1.22666 -0.66133,0 -1.17333,-0.576 -1.17333,-1.216 0,-0.69333 0.544,-1.22666 1.17333,-1.22666 0.66133,0 1.17333,0.576 1.17333,1.216 z m 1.184,3.95733 c 0,0.52267 -0.864,1.06667 -2.03733,1.06667 -1.184,0 -2.03733,-0.544 -2.03733,-1.06667 0,-0.224 0.10666,-0.61867 0.50133,-0.864 0.288,-0.18133 0.39467,-0.192 1.23733,-0.192 1.04534,0 2.336,0.0533 2.336,1.056 z"
         style=""
         id="path4685" />
      <path
         d="m 908.94834,568.9782 c 0,-0.20267 -0.224,-0.20267 -0.26667,-0.20267 -0.128,0 -0.192,0.0107 -0.23466,0.11733 -0.29867,0.672 -0.93867,0.78934 -1.28,0.78934 -0.87467,0 -1.74934,-0.58667 -1.96267,-1.71734 h 3.41333 c 0.18134,0 0.33067,0 0.33067,-0.29866 0,-1.19467 -0.66133,-2.22934 -2.02667,-2.22934 -1.248,0 -2.26133,1.056 -2.26133,2.34667 0,1.29067 1.06667,2.34667 2.432,2.34667 1.35467,0 1.856,-0.896 1.856,-1.152 z m -0.544,-1.46134 h -3.18933 c 0.192,-0.992 0.88533,-1.632 1.70666,-1.632 0.61867,0 1.36534,0.288 1.48267,1.632 z"
         style=""
         id="path4687" />
      <path
         d="m 915.1285,569.8422 c 0,-0.224 -0.18133,-0.224 -0.608,-0.224 v -2.784 c 0,-0.20267 -0.0213,-1.36534 -0.88533,-1.36534 -0.30933,0 -0.72533,0.128 -1.12,0.68267 -0.224,-0.50133 -0.49067,-0.68267 -0.81067,-0.68267 -0.33066,0 -0.608,0.13867 -1.024,0.52267 -0.032,-0.45867 -0.20266,-0.45867 -0.352,-0.45867 h -0.352 c -0.11733,0 -0.34133,0 -0.34133,0.224 0,0.224 0.18133,0.224 0.608,0.224 v 3.63734 c -0.42667,0 -0.608,0 -0.608,0.224 0,0.224 0.23467,0.224 0.34133,0.224 h 0.97067 c 0.128,0 0.34133,0 0.34133,-0.224 0,-0.224 -0.18133,-0.224 -0.608,-0.224 v -2.09067 c 0,-1.06667 0.49067,-1.61067 0.98134,-1.61067 0.288,0 0.49066,0.192 0.49066,1.01334 v 2.688 c -0.26666,0 -0.45866,0 -0.45866,0.224 0,0.224 0.224,0.224 0.34133,0.224 h 0.82133 c 0.128,0 0.34134,0 0.34134,-0.224 0,-0.224 -0.18134,-0.224 -0.608,-0.224 v -2.09067 c 0,-1.06667 0.50133,-1.61067 1.00266,-1.61067 0.288,0 0.49067,0.192 0.49067,1.01334 v 2.688 c -0.26667,0 -0.45867,0 -0.45867,0.224 0,0.224 0.224,0.224 0.34134,0.224 h 0.82133 c 0.11733,0 0.34133,0 0.34133,-0.224 z"
         style=""
         id="path4689" />
      <path
         d="m 920.15667,568.9782 c 0,-0.20267 -0.224,-0.20267 -0.26667,-0.20267 -0.128,0 -0.192,0.0107 -0.23467,0.11733 -0.29866,0.672 -0.93866,0.78934 -1.28,0.78934 -0.87466,0 -1.74933,-0.58667 -1.96266,-1.71734 h 3.41333 c 0.18133,0 0.33067,0 0.33067,-0.29866 0,-1.19467 -0.66134,-2.22934 -2.02667,-2.22934 -1.248,0 -2.26133,1.056 -2.26133,2.34667 0,1.29067 1.06666,2.34667 2.432,2.34667 1.35466,0 1.856,-0.896 1.856,-1.152 z m -0.544,-1.46134 h -3.18934 c 0.192,-0.992 0.88534,-1.632 1.70667,-1.632 0.61867,0 1.36533,0.288 1.48267,1.632 z"
         style=""
         id="path4691" />
      <path
         d="m 926.29417,569.8422 c 0,-0.224 -0.21333,-0.224 -0.34133,-0.224 h -0.59733 v -2.67734 c 0,-1.024 -0.512,-1.472 -1.32267,-1.472 -0.69333,0 -1.16267,0.352 -1.55733,0.736 0,-0.53333 0,-0.672 -0.33067,-0.672 h -0.8 c -0.128,0 -0.34133,0 -0.34133,0.23467 0,0.21333 0.21333,0.21333 0.33066,0.21333 h 0.608 v 3.63734 h -0.59733 c -0.128,0 -0.34133,0 -0.34133,0.224 0,0.224 0.21333,0.224 0.33066,0.224 h 1.74934 c 0.11733,0 0.33066,0 0.33066,-0.224 0,-0.224 -0.21333,-0.224 -0.34133,-0.224 h -0.59733 v -2.06934 c 0,-1.184 0.88533,-1.632 1.49333,-1.632 0.66133,0 0.85333,0.34134 0.85333,1.088 v 2.61334 h -0.544 c -0.128,0 -0.34133,0 -0.34133,0.224 0,0.224 0.224,0.224 0.34133,0.224 h 1.68534 c 0.11733,0 0.33066,0 0.33066,-0.224 z"
         style=""
         id="path4693" />
      <path
         d="m 931.205,568.7862 c 0,-0.14934 0,-0.32 -0.27733,-0.32 -0.26667,0 -0.26667,0.17066 -0.26667,0.30933 -0.0107,0.77867 -0.71466,0.90667 -1.00266,0.90667 -0.96,0 -0.96,-0.65067 -0.96,-0.96 v -2.74134 h 1.92 c 0.11733,0 0.33066,0 0.33066,-0.21333 0,-0.23467 -0.20266,-0.23467 -0.33066,-0.23467 h -1.92 v -1.01333 c 0,-0.14933 0,-0.34133 -0.26667,-0.34133 -0.26667,0 -0.26667,0.18133 -0.26667,0.34133 v 1.01333 h -1.07733 c -0.128,0 -0.34133,0 -0.34133,0.23467 0,0.21333 0.21333,0.21333 0.33066,0.21333 h 1.088 v 2.80534 c 0,0.98133 0.69334,1.344 1.44,1.344 0.75734,0 1.6,-0.42667 1.6,-1.344 z"
         style=""
         id="path4695" />
    </g>
    <g
       aria-label="Leadership"
       transform="matrix(0.26458333,0,0,0.26458333,-459.3259,-90.399369)"
       style="font-style:normal;font-variant:normal;font-weight:normal;font-stretch:normal;font-size:10.66666698px;line-height:1.25;font-family:'Latin Modern Mono Light';-inkscape-font-specification:'Latin Modern Mono Light, ';letter-spacing:0px;word-spacing:0px;display:inline;opacity:1;fill:#000000;fill-opacity:1;stroke:none"
       id="flowRoot4608">
      <path
         d="m 853.17333,569.72486 v -0.98133 c 0,-0.16 0,-0.34133 -0.26666,-0.34133 -0.26667,0 -0.26667,0.17066 -0.26667,0.34133 v 0.87467 h -2.88 v -5.62134 h 0.72533 c 0.11734,0 0.34134,0 0.34134,-0.21333 0,-0.23467 -0.224,-0.23467 -0.34134,-0.23467 H 848.704 c -0.128,0 -0.33067,0 -0.33067,0.23467 0,0.21333 0.20267,0.21333 0.33067,0.21333 h 0.512 v 5.62134 h -0.512 c -0.128,0 -0.33067,0 -0.33067,0.224 0,0.224 0.20267,0.224 0.33067,0.224 h 4.13867 c 0.27733,0 0.33066,-0.0747 0.33066,-0.34134 z"
         style=""
         id="path4645" />
      <path
         d="m 858.51083,568.9782 c 0,-0.20267 -0.224,-0.20267 -0.26666,-0.20267 -0.128,0 -0.192,0.0107 -0.23467,0.11733 -0.29867,0.672 -0.93867,0.78934 -1.28,0.78934 -0.87467,0 -1.74933,-0.58667 -1.96267,-1.71734 h 3.41334 c 0.18133,0 0.33066,0 0.33066,-0.29866 0,-1.19467 -0.66133,-2.22934 -2.02666,-2.22934 -1.248,0 -2.26134,1.056 -2.26134,2.34667 0,1.29067 1.06667,2.34667 2.432,2.34667 1.35467,0 1.856,-0.896 1.856,-1.152 z m -0.544,-1.46134 h -3.18933 c 0.192,-0.992 0.88533,-1.632 1.70667,-1.632 0.61866,0 1.36533,0.288 1.48266,1.632 z"
         style=""
         id="path4647" />
      <path
         d="m 864.787,569.83153 c 0,-0.21333 -0.21333,-0.21333 -0.34133,-0.21333 -0.43734,0 -0.59734,-0.064 -0.768,-0.128 v -2.45334 c 0,-0.74666 -0.576,-1.6 -2.06934,-1.6 -0.43733,0 -1.49333,0 -1.49333,0.69334 0,0.256 0.18133,0.39466 0.384,0.39466 0.128,0 0.37333,-0.0747 0.384,-0.39466 0,-0.20267 0.40533,-0.24534 0.736,-0.24534 0.90667,0 1.51467,0.384 1.51467,1.344 -1.97334,0.032 -3.30667,0.52267 -3.30667,1.536 0,0.71467 0.66133,1.36534 1.71733,1.36534 0.384,0 1.04534,-0.0747 1.632,-0.45867 0.27734,0.39467 0.77867,0.39467 1.16267,0.39467 0.23467,0 0.448,0 0.448,-0.23467 z m -1.65333,-1.13067 c 0,0.288 0,0.55467 -0.49067,0.77867 -0.416,0.20267 -0.93867,0.20267 -1.024,0.20267 -0.75733,0 -1.248,-0.43734 -1.248,-0.91734 0,-0.56533 0.97067,-1.056 2.76267,-1.10933 z"
         style=""
         id="path4649" />
      <path
         d="m 870.2525,569.83153 c 0,-0.21333 -0.21333,-0.21333 -0.33067,-0.21333 h -0.608 v -5.728 c 0,-0.256 -0.0427,-0.34134 -0.33066,-0.34134 h -0.8 c -0.128,0 -0.34134,0 -0.34134,0.23467 0,0.21333 0.21334,0.21333 0.33067,0.21333 h 0.608 v 2.10134 c -0.53333,-0.45867 -0.96,-0.62934 -1.408,-0.62934 -1.14133,0 -2.144,1.00267 -2.144,2.336 0,1.30134 0.93867,2.32534 2.048,2.32534 0.58667,0 1.01333,-0.27734 1.504,-0.77867 0,0.58667 0,0.71467 0.33067,0.71467 h 0.8 c 0.128,0 0.34133,0 0.34133,-0.23467 z m -1.472,-1.792 c 0,0.66133 -0.544,1.64267 -1.46133,1.64267 -0.832,0 -1.55734,-0.832 -1.55734,-1.87734 0,-1.13066 0.832,-1.888 1.65334,-1.888 0.768,0 1.36533,0.672 1.36533,1.33334 z"
         style=""
         id="path4651" />
      <path
         d="m 875.32333,568.9782 c 0,-0.20267 -0.224,-0.20267 -0.26666,-0.20267 -0.128,0 -0.192,0.0107 -0.23467,0.11733 -0.29867,0.672 -0.93867,0.78934 -1.28,0.78934 -0.87467,0 -1.74933,-0.58667 -1.96267,-1.71734 h 3.41334 c 0.18133,0 0.33066,0 0.33066,-0.29866 0,-1.19467 -0.66133,-2.22934 -2.02666,-2.22934 -1.248,0 -2.26134,1.056 -2.26134,2.34667 0,1.29067 1.06667,2.34667 2.432,2.34667 1.35467,0 1.856,-0.896 1.856,-1.152 z m -0.544,-1.46134 H 871.59 c 0.192,-0.992 0.88533,-1.632 1.70667,-1.632 0.61866,0 1.36533,0.288 1.48266,1.632 z"
         style=""
         id="path4653" />
      <path
         d="m 881.1835,566.04486 c 0,-0.20266 -0.128,-0.576 -0.93866,-0.576 -0.53334,0 -1.20534,0.192 -1.984,1.07734 v -0.672 c 0,-0.256 -0.0427,-0.34134 -0.33067,-0.34134 h -1.20533 c -0.128,0 -0.33067,0 -0.33067,0.224 0,0.224 0.20267,0.224 0.33067,0.224 h 1.00266 v 3.63734 h -1.00266 c -0.128,0 -0.33067,0 -0.33067,0.21333 0,0.23467 0.20267,0.23467 0.33067,0.23467 h 2.86933 c 0.128,0 0.34133,0 0.34133,-0.224 0,-0.224 -0.21333,-0.224 -0.34133,-0.224 h -1.33333 v -1.49334 c 0,-1.088 0.69333,-2.208 2.208,-2.208 0,0.30934 0.14933,0.49067 0.36266,0.49067 0.192,0 0.352,-0.13867 0.352,-0.36267 z"
         style=""
         id="path4655" />
      <path
         d="m 886.47833,568.79686 c 0,-1.056 -1.344,-1.26933 -1.67466,-1.32266 l -0.75734,-0.128 c -0.352,-0.0533 -1.16266,-0.24534 -1.16266,-0.72534 0,-0.30933 0.36266,-0.736 1.51466,-0.736 1.01334,0 1.17334,0.39467 1.22667,0.832 0.0213,0.096 0.0747,0.16 0.24533,0.16 0.27734,0 0.27734,-0.18133 0.27734,-0.34133 v -0.75733 c 0,-0.128 0,-0.34134 -0.21334,-0.34134 -0.18133,0 -0.21333,0.096 -0.26666,0.27734 -0.576,-0.27734 -1.04534,-0.27734 -1.248,-0.27734 -1.728,0 -1.984,0.82134 -1.984,1.184 0,0.93867 1.12,1.10934 2.08,1.248 0.58666,0.096 1.51466,0.29867 1.51466,0.928 0,0.448 -0.42666,0.88534 -1.52533,0.88534 -0.55467,0 -1.216,-0.13867 -1.54667,-1.17334 -0.0427,-0.0747 -0.096,-0.128 -0.24533,-0.128 -0.27733,0 -0.27733,0.18134 -0.27733,0.34134 v 1.06666 c 0,0.128 0,0.34134 0.224,0.34134 0.0747,0 0.192,-0.0213 0.34133,-0.49067 0.64,0.46933 1.20533,0.49067 1.49333,0.49067 1.64267,0 1.984,-0.832 1.984,-1.33334 z"
         style=""
         id="path4657" />
      <path
         d="m 892.66917,569.8422 c 0,-0.224 -0.21334,-0.224 -0.34134,-0.224 h -0.59733 v -2.67734 c 0,-1.024 -0.512,-1.472 -1.32267,-1.472 -0.69333,0 -1.16266,0.352 -1.55733,0.736 v -2.31466 c 0,-0.256 -0.0427,-0.34134 -0.33067,-0.34134 h -0.8 c -0.128,0 -0.34133,0 -0.34133,0.23467 0,0.21333 0.21333,0.21333 0.33067,0.21333 h 0.608 v 5.62134 h -0.59734 c -0.128,0 -0.34133,0 -0.34133,0.224 0,0.224 0.21333,0.224 0.33067,0.224 h 1.74933 c 0.11733,0 0.33067,0 0.33067,-0.224 0,-0.224 -0.21334,-0.224 -0.34134,-0.224 h -0.59733 v -2.06934 c 0,-1.184 0.88533,-1.632 1.49333,-1.632 0.66134,0 0.85334,0.34134 0.85334,1.088 v 2.61334 h -0.544 c -0.128,0 -0.34134,0 -0.34134,0.224 0,0.224 0.224,0.224 0.34134,0.224 h 1.68533 c 0.11733,0 0.33067,0 0.33067,-0.224 z"
         style=""
         id="path4659" />
      <path
         d="m 897.644,569.8422 c 0,-0.224 -0.224,-0.224 -0.34133,-0.224 h -1.26933 v -3.744 c 0,-0.256 -0.0427,-0.34134 -0.33067,-0.34134 h -1.568 c -0.11733,0 -0.34133,0 -0.34133,0.224 0,0.224 0.224,0.224 0.34133,0.224 H 895.5 v 3.63734 h -1.45066 c -0.128,0 -0.34134,0 -0.34134,0.224 0,0.224 0.224,0.224 0.34134,0.224 h 3.25333 c 0.11733,0 0.34133,0 0.34133,-0.224 z m -1.568,-5.78134 c 0,-0.256 -0.192,-0.448 -0.43733,-0.448 -0.24533,0 -0.43733,0.192 -0.43733,0.448 0,0.24534 0.192,0.43734 0.43733,0.43734 0.24533,0 0.43733,-0.192 0.43733,-0.43734 z"
         style=""
         id="path4661" />
      <path
         d="m 903.61084,567.7942 c 0,-1.29067 -0.928,-2.32534 -2.03734,-2.32534 -0.50133,0 -0.97066,0.192 -1.51466,0.68267 0,-0.50133 -0.0107,-0.61867 -0.33067,-0.61867 h -0.8 c -0.128,0 -0.34133,0 -0.34133,0.23467 0,0.21333 0.21333,0.21333 0.33066,0.21333 h 0.608 v 6.08 h -0.59733 c -0.128,0 -0.34133,0 -0.34133,0.23467 0,0.224 0.21333,0.224 0.33066,0.224 h 1.74934 c 0.11733,0 0.33066,0 0.33066,-0.224 0,-0.23467 -0.21333,-0.23467 -0.34133,-0.23467 h -0.59733 v -2.656 c 0.61866,0.62934 1.06666,0.72534 1.39733,0.72534 1.14133,0 2.15467,-1.00267 2.15467,-2.336 z m -0.53334,0 c 0,1.13066 -0.832,1.888 -1.65333,1.888 -0.93867,0 -1.36533,-1.04534 -1.36533,-1.61067 v -0.81067 c 0,-0.704 0.69333,-1.344 1.45066,-1.344 0.87467,0 1.568,0.85334 1.568,1.87734 z"
         style=""
         id="path4663" />
    </g>
    <g
       aria-label="Motivation"
       transform="matrix(0.26458333,0,0,0.26458333,-463.46121,-74.389649)"
       style="font-style:normal;font-variant:normal;font-weight:normal;font-stretch:normal;font-size:10.66666698px;line-height:1.25;font-family:'Latin Modern Mono Light';-inkscape-font-specification:'Latin Modern Mono Light, ';letter-spacing:0px;word-spacing:0px;display:inline;opacity:1;fill:#000000;fill-opacity:1;stroke:none"
       id="flowRoot4616">
      <path
         d="m 853.38667,569.8422 c 0,-0.224 -0.20267,-0.224 -0.58667,-0.224 v -5.62134 c 0.384,0 0.58667,0 0.58667,-0.224 0,-0.224 -0.21334,-0.224 -0.33067,-0.224 h -0.61867 c -0.36266,0 -0.448,0.128 -0.52266,0.36267 l -1.10934,3.456 h -0.0213 l -1.16267,-3.62667 c -0.064,-0.20266 -0.352,-0.192 -0.46933,-0.192 h -0.61867 c -0.11733,0 -0.33066,0 -0.33066,0.224 0,0.224 0.20266,0.224 0.58666,0.224 v 5.62134 c -0.384,0 -0.58666,0 -0.58666,0.224 0,0.224 0.21333,0.224 0.33066,0.224 H 849.44 c 0.11733,0 0.33067,0 0.33067,-0.224 0,-0.224 -0.20267,-0.224 -0.576,-0.224 v -5.62134 h 0.0747 l 1.20534,3.68 c 0.0427,0.11734 0.224,0.13867 0.32,0.13867 0.10666,0 0.30933,-0.0427 0.352,-0.18133 l 1.184,-3.63734 h 0.0747 v 5.62134 c -0.384,0 -0.58666,0 -0.58666,0.224 0,0.224 0.21333,0.224 0.33066,0.224 h 0.90667 c 0.11733,0 0.33067,0 0.33067,-0.224 z"
         style=""
         id="path4624" />
      <path
         d="m 858.5535,567.7942 c 0,-1.312 -0.98133,-2.35734 -2.15467,-2.35734 -1.17333,0 -2.15466,1.04534 -2.15466,2.35734 0,1.33333 1.00266,2.336 2.15466,2.336 1.152,0 2.15467,-1.01334 2.15467,-2.336 z m -0.544,-0.0747 c 0,1.088 -0.74667,1.96267 -1.61067,1.96267 -0.87466,0 -1.61066,-0.87467 -1.61066,-1.96267 0,-1.07733 0.77866,-1.83467 1.61066,-1.83467 0.84267,0 1.61067,0.75734 1.61067,1.83467 z"
         style=""
         id="path4626" />
      <path
         d="m 863.955,568.7862 c 0,-0.14934 0,-0.32 -0.27733,-0.32 -0.26667,0 -0.26667,0.17066 -0.26667,0.30933 -0.0107,0.77867 -0.71467,0.90667 -1.00267,0.90667 -0.96,0 -0.96,-0.65067 -0.96,-0.96 v -2.74134 h 1.92 c 0.11734,0 0.33067,0 0.33067,-0.21333 0,-0.23467 -0.20267,-0.23467 -0.33067,-0.23467 h -1.92 v -1.01333 c 0,-0.14933 0,-0.34133 -0.26666,-0.34133 -0.26667,0 -0.26667,0.18133 -0.26667,0.34133 v 1.01333 h -1.07733 c -0.128,0 -0.34134,0 -0.34134,0.23467 0,0.21333 0.21334,0.21333 0.33067,0.21333 h 1.088 v 2.80534 c 0,0.98133 0.69333,1.344 1.44,1.344 0.75733,0 1.6,-0.42667 1.6,-1.344 z"
         style=""
         id="path4628" />
      <path
         d="m 869.62317,569.8422 c 0,-0.224 -0.224,-0.224 -0.34134,-0.224 h -1.26933 v -3.744 c 0,-0.256 -0.0427,-0.34134 -0.33067,-0.34134 h -1.568 c -0.11733,0 -0.34133,0 -0.34133,0.224 0,0.224 0.224,0.224 0.34133,0.224 h 1.36534 v 3.63734 h -1.45067 c -0.128,0 -0.34133,0 -0.34133,0.224 0,0.224 0.224,0.224 0.34133,0.224 h 3.25333 c 0.11734,0 0.34134,0 0.34134,-0.224 z m -1.568,-5.78134 c 0,-0.256 -0.192,-0.448 -0.43734,-0.448 -0.24533,0 -0.43733,0.192 -0.43733,0.448 0,0.24534 0.192,0.43734 0.43733,0.43734 0.24534,0 0.43734,-0.192 0.43734,-0.43734 z"
         style=""
         id="path4630" />
      <path
         d="m 875.72867,565.76753 c 0,-0.23467 -0.20267,-0.23467 -0.33067,-0.23467 h -1.29067 c -0.11733,0 -0.33066,0 -0.33066,0.224 0,0.224 0.20266,0.224 0.33066,0.224 h 0.45867 l -1.248,3.68 h -0.21333 l -1.248,-3.68 h 0.45866 c 0.11734,0 0.33067,0 0.33067,-0.21333 0,-0.23467 -0.20267,-0.23467 -0.33067,-0.23467 h -1.29066 c -0.128,0 -0.33067,0 -0.33067,0.23467 0,0.21333 0.21333,0.21333 0.33067,0.21333 h 0.39466 l 1.29067,3.82934 c 0.10667,0.29866 0.30933,0.29866 0.50133,0.29866 0.17067,0 0.40534,0 0.50134,-0.288 l 1.29066,-3.84 h 0.39467 c 0.11733,0 0.33067,0 0.33067,-0.21333 z"
         style=""
         id="path4632" />
      <path
         d="m 881.5995,569.83153 c 0,-0.21333 -0.21333,-0.21333 -0.34133,-0.21333 -0.43733,0 -0.59733,-0.064 -0.768,-0.128 v -2.45334 c 0,-0.74666 -0.576,-1.6 -2.06933,-1.6 -0.43734,0 -1.49334,0 -1.49334,0.69334 0,0.256 0.18134,0.39466 0.384,0.39466 0.128,0 0.37334,-0.0747 0.384,-0.39466 0,-0.20267 0.40534,-0.24534 0.736,-0.24534 0.90667,0 1.51467,0.384 1.51467,1.344 -1.97333,0.032 -3.30667,0.52267 -3.30667,1.536 0,0.71467 0.66134,1.36534 1.71734,1.36534 0.384,0 1.04533,-0.0747 1.632,-0.45867 0.27733,0.39467 0.77866,0.39467 1.16266,0.39467 0.23467,0 0.448,0 0.448,-0.23467 z m -1.65333,-1.13067 c 0,0.288 0,0.55467 -0.49067,0.77867 -0.416,0.20267 -0.93866,0.20267 -1.024,0.20267 -0.75733,0 -1.248,-0.43734 -1.248,-0.91734 0,-0.56533 0.97067,-1.056 2.76267,-1.10933 z"
         style=""
         id="path4634" />
      <path
         d="m 886.37167,568.7862 c 0,-0.14934 0,-0.32 -0.27734,-0.32 -0.26666,0 -0.26666,0.17066 -0.26666,0.30933 -0.0107,0.77867 -0.71467,0.90667 -1.00267,0.90667 -0.96,0 -0.96,-0.65067 -0.96,-0.96 v -2.74134 h 1.92 c 0.11733,0 0.33067,0 0.33067,-0.21333 0,-0.23467 -0.20267,-0.23467 -0.33067,-0.23467 h -1.92 v -1.01333 c 0,-0.14933 0,-0.34133 -0.26667,-0.34133 -0.26666,0 -0.26666,0.18133 -0.26666,0.34133 v 1.01333 h -1.07734 c -0.128,0 -0.34133,0 -0.34133,0.23467 0,0.21333 0.21333,0.21333 0.33067,0.21333 h 1.088 v 2.80534 c 0,0.98133 0.69333,1.344 1.44,1.344 0.75733,0 1.6,-0.42667 1.6,-1.344 z"
         style=""
         id="path4636" />
      <path
         d="m 892.03983,569.8422 c 0,-0.224 -0.224,-0.224 -0.34133,-0.224 h -1.26933 v -3.744 c 0,-0.256 -0.0427,-0.34134 -0.33067,-0.34134 h -1.568 c -0.11733,0 -0.34133,0 -0.34133,0.224 0,0.224 0.224,0.224 0.34133,0.224 h 1.36533 v 3.63734 h -1.45066 c -0.128,0 -0.34134,0 -0.34134,0.224 0,0.224 0.224,0.224 0.34134,0.224 h 3.25333 c 0.11733,0 0.34133,0 0.34133,-0.224 z m -1.568,-5.78134 c 0,-0.256 -0.192,-0.448 -0.43733,-0.448 -0.24533,0 -0.43733,0.192 -0.43733,0.448 0,0.24534 0.192,0.43734 0.43733,0.43734 0.24533,0 0.43733,-0.192 0.43733,-0.43734 z"
         style=""
         id="path4638" />
      <path
         d="m 897.78267,567.7942 c 0,-1.312 -0.98133,-2.35734 -2.15467,-2.35734 -1.17333,0 -2.15466,1.04534 -2.15466,2.35734 0,1.33333 1.00266,2.336 2.15466,2.336 1.152,0 2.15467,-1.01334 2.15467,-2.336 z m -0.544,-0.0747 c 0,1.088 -0.74667,1.96267 -1.61067,1.96267 -0.87466,0 -1.61066,-0.87467 -1.61066,-1.96267 0,-1.07733 0.77866,-1.83467 1.61066,-1.83467 0.84267,0 1.61067,0.75734 1.61067,1.83467 z"
         style=""
         id="path4640" />
      <path
         d="m 903.8775,569.8422 c 0,-0.224 -0.21333,-0.224 -0.34133,-0.224 h -0.59733 v -2.67734 c 0,-1.024 -0.512,-1.472 -1.32267,-1.472 -0.69333,0 -1.16267,0.352 -1.55733,0.736 0,-0.53333 0,-0.672 -0.33067,-0.672 h -0.8 c -0.128,0 -0.34133,0 -0.34133,0.23467 0,0.21333 0.21333,0.21333 0.33066,0.21333 h 0.608 v 3.63734 h -0.59733 c -0.128,0 -0.34133,0 -0.34133,0.224 0,0.224 0.21333,0.224 0.33066,0.224 h 1.74934 c 0.11733,0 0.33066,0 0.33066,-0.224 0,-0.224 -0.21333,-0.224 -0.34133,-0.224 h -0.59733 v -2.06934 c 0,-1.184 0.88533,-1.632 1.49333,-1.632 0.66133,0 0.85333,0.34134 0.85333,1.088 v 2.61334 h -0.544 c -0.128,0 -0.34133,0 -0.34133,0.224 0,0.224 0.224,0.224 0.34133,0.224 h 1.68534 c 0.11733,0 0.33066,0 0.33066,-0.224 z"
         style=""
         id="path4642" />
    </g>
    <g
       aria-label="Social Intelligence"
       transform="matrix(0.26458333,0,0,0.26458333,-495.47603,-67.734099)"
       style="font-style:normal;font-variant:normal;font-weight:normal;font-stretch:normal;font-size:10.66666698px;line-height:1.25;font-family:'Latin Modern Mono Light';-inkscape-font-specification:'Latin Modern Mono Light, ';letter-spacing:0px;word-spacing:0px;display:inline;opacity:1;fill:#000000;fill-opacity:1;stroke:none"
       id="flowRoot4624">
      <path
         d="m 853.00267,568.34886 c 0,-0.66133 -0.37334,-1.09866 -0.50134,-1.23733 -0.43733,-0.42667 -0.72533,-0.49067 -1.55733,-0.68267 l -0.896,-0.20266 c -0.512,-0.14934 -0.96,-0.576 -0.96,-1.14134 0,-0.61866 0.576,-1.20533 1.42933,-1.20533 1.35467,0 1.568,1.09867 1.65334,1.52533 0.032,0.128 0.11733,0.16 0.256,0.16 0.27733,0 0.27733,-0.18133 0.27733,-0.34133 v -1.45067 c 0,-0.128 0,-0.34133 -0.224,-0.34133 -0.18133,0 -0.224,0.17067 -0.34133,0.59733 -0.56534,-0.48 -1.13067,-0.59733 -1.61067,-0.59733 -1.152,0 -1.94133,0.81067 -1.94133,1.696 0,0.69333 0.48,1.376 1.344,1.62133 l 1.25866,0.29867 c 0.34134,0.0747 1.312,0.32 1.312,1.35467 0,0.61866 -0.512,1.33333 -1.45066,1.33333 -0.33067,0 -0.896,-0.0533 -1.35467,-0.36267 -0.50133,-0.32 -0.55467,-0.82133 -0.56533,-1.04533 -0.0107,-0.128 -0.0213,-0.27733 -0.26667,-0.27733 -0.27733,0 -0.27733,0.18133 -0.27733,0.34133 v 1.45067 c 0,0.128 0,0.34133 0.224,0.34133 0.18133,0 0.224,-0.13867 0.34133,-0.576 0.55467,0.416 1.20533,0.576 1.888,0.576 1.20533,0 1.96267,-0.90667 1.96267,-1.83467 z"
         style=""
         id="path4587" />
      <path
         d="m 858.5535,567.7942 c 0,-1.312 -0.98133,-2.35734 -2.15467,-2.35734 -1.17333,0 -2.15466,1.04534 -2.15466,2.35734 0,1.33333 1.00266,2.336 2.15466,2.336 1.152,0 2.15467,-1.01334 2.15467,-2.336 z m -0.544,-0.0747 c 0,1.088 -0.74667,1.96267 -1.61067,1.96267 -0.87466,0 -1.61066,-0.87467 -1.61066,-1.96267 0,-1.07733 0.77866,-1.83467 1.61066,-1.83467 0.84267,0 1.61067,0.75734 1.61067,1.83467 z"
         style=""
         id="path4589" />
      <path
         d="m 864.147,568.9782 c 0,-0.20267 -0.23467,-0.20267 -0.27733,-0.20267 -0.10667,0 -0.17067,0.0107 -0.224,0.0853 -0.11734,0.24534 -0.37334,0.82134 -1.23734,0.82134 -0.992,0 -1.83466,-0.82134 -1.83466,-1.888 0,-0.56534 0.32,-1.90934 1.89866,-1.90934 0.27734,0 0.77867,0.096 0.77867,0.21334 0,0.29866 0.16,0.42666 0.37333,0.42666 0.20267,0 0.384,-0.14933 0.384,-0.39466 0,-0.62934 -1.07733,-0.69334 -1.536,-0.69334 -1.81333,0 -2.44266,1.42934 -2.44266,2.35734 0,1.25866 0.992,2.336 2.31466,2.336 1.42934,0 1.80267,-0.98134 1.80267,-1.152 z"
         style=""
         id="path4591" />
      <path
         d="m 869.62317,569.8422 c 0,-0.224 -0.224,-0.224 -0.34134,-0.224 h -1.26933 v -3.744 c 0,-0.256 -0.0427,-0.34134 -0.33067,-0.34134 h -1.568 c -0.11733,0 -0.34133,0 -0.34133,0.224 0,0.224 0.224,0.224 0.34133,0.224 h 1.36534 v 3.63734 h -1.45067 c -0.128,0 -0.34133,0 -0.34133,0.224 0,0.224 0.224,0.224 0.34133,0.224 h 3.25333 c 0.11734,0 0.34134,0 0.34134,-0.224 z m -1.568,-5.78134 c 0,-0.256 -0.192,-0.448 -0.43734,-0.448 -0.24533,0 -0.43733,0.192 -0.43733,0.448 0,0.24534 0.192,0.43734 0.43733,0.43734 0.24534,0 0.43734,-0.192 0.43734,-0.43734 z"
         style=""
         id="path4593" />
      <path
         d="m 875.99533,569.83153 c 0,-0.21333 -0.21333,-0.21333 -0.34133,-0.21333 -0.43733,0 -0.59733,-0.064 -0.768,-0.128 v -2.45334 c 0,-0.74666 -0.576,-1.6 -2.06933,-1.6 -0.43734,0 -1.49334,0 -1.49334,0.69334 0,0.256 0.18134,0.39466 0.384,0.39466 0.128,0 0.37334,-0.0747 0.384,-0.39466 0,-0.20267 0.40534,-0.24534 0.736,-0.24534 0.90667,0 1.51467,0.384 1.51467,1.344 -1.97333,0.032 -3.30667,0.52267 -3.30667,1.536 0,0.71467 0.66134,1.36534 1.71734,1.36534 0.384,0 1.04533,-0.0747 1.632,-0.45867 0.27733,0.39467 0.77866,0.39467 1.16266,0.39467 0.23467,0 0.448,0 0.448,-0.23467 z m -1.65333,-1.13067 c 0,0.288 0,0.55467 -0.49067,0.77867 -0.416,0.20267 -0.93866,0.20267 -1.024,0.20267 -0.75733,0 -1.248,-0.43734 -1.248,-0.91734 0,-0.56533 0.97067,-1.056 2.76267,-1.10933 z"
         style=""
         id="path4595" />
      <path
         d="m 880.97017,569.8422 c 0,-0.224 -0.20267,-0.224 -0.33067,-0.224 h -1.54666 v -5.728 c 0,-0.256 -0.0533,-0.34134 -0.33067,-0.34134 h -1.74933 c -0.128,0 -0.34134,0 -0.34134,0.23467 0,0.21333 0.224,0.21333 0.33067,0.21333 h 1.54667 v 5.62134 h -1.536 c -0.128,0 -0.34134,0 -0.34134,0.224 0,0.224 0.224,0.224 0.33067,0.224 h 3.63733 c 0.11734,0 0.33067,0 0.33067,-0.224 z"
         style=""
         id="path4597" />
      <path
         d="m 891.94383,569.8422 c 0,-0.224 -0.224,-0.224 -0.34133,-0.224 h -1.30133 v -5.62134 h 1.30133 c 0.11733,0 0.34133,0 0.34133,-0.21333 0,-0.23467 -0.224,-0.23467 -0.34133,-0.23467 h -3.14667 c -0.11733,0 -0.34133,0 -0.34133,0.224 0,0.224 0.224,0.224 0.34133,0.224 h 1.30134 v 5.62134 h -1.30134 c -0.11733,0 -0.34133,0 -0.34133,0.21333 0,0.23467 0.224,0.23467 0.34133,0.23467 h 3.14667 c 0.11733,0 0.34133,0 0.34133,-0.224 z"
         style=""
         id="path4599" />
      <path
         d="m 898.27334,569.8422 c 0,-0.224 -0.21334,-0.224 -0.34134,-0.224 h -0.59733 v -2.67734 c 0,-1.024 -0.512,-1.472 -1.32267,-1.472 -0.69333,0 -1.16266,0.352 -1.55733,0.736 0,-0.53333 0,-0.672 -0.33067,-0.672 h -0.8 c -0.128,0 -0.34133,0 -0.34133,0.23467 0,0.21333 0.21333,0.21333 0.33067,0.21333 h 0.608 v 3.63734 H 893.324 c -0.128,0 -0.34133,0 -0.34133,0.224 0,0.224 0.21333,0.224 0.33067,0.224 h 1.74933 c 0.11733,0 0.33067,0 0.33067,-0.224 0,-0.224 -0.21334,-0.224 -0.34134,-0.224 h -0.59733 v -2.06934 c 0,-1.184 0.88533,-1.632 1.49333,-1.632 0.66134,0 0.85334,0.34134 0.85334,1.088 v 2.61334 h -0.544 c -0.128,0 -0.34134,0 -0.34134,0.224 0,0.224 0.224,0.224 0.34134,0.224 h 1.68533 c 0.11733,0 0.33067,0 0.33067,-0.224 z"
         style=""
         id="path4601" />
      <path
         d="m 903.18417,568.7862 c 0,-0.14934 0,-0.32 -0.27733,-0.32 -0.26667,0 -0.26667,0.17066 -0.26667,0.30933 -0.0107,0.77867 -0.71467,0.90667 -1.00267,0.90667 -0.96,0 -0.96,-0.65067 -0.96,-0.96 v -2.74134 h 1.92 c 0.11734,0 0.33067,0 0.33067,-0.21333 0,-0.23467 -0.20267,-0.23467 -0.33067,-0.23467 h -1.92 v -1.01333 c 0,-0.14933 0,-0.34133 -0.26666,-0.34133 -0.26667,0 -0.26667,0.18133 -0.26667,0.34133 v 1.01333 h -1.07733 c -0.128,0 -0.34134,0 -0.34134,0.23467 0,0.21333 0.21334,0.21333 0.33067,0.21333 h 1.088 v 2.80534 c 0,0.98133 0.69333,1.344 1.44,1.344 0.75733,0 1.6,-0.42667 1.6,-1.344 z"
         style=""
         id="path4603" />
      <path
         d="m 908.94834,568.9782 c 0,-0.20267 -0.224,-0.20267 -0.26667,-0.20267 -0.128,0 -0.192,0.0107 -0.23466,0.11733 -0.29867,0.672 -0.93867,0.78934 -1.28,0.78934 -0.87467,0 -1.74934,-0.58667 -1.96267,-1.71734 h 3.41333 c 0.18134,0 0.33067,0 0.33067,-0.29866 0,-1.19467 -0.66133,-2.22934 -2.02667,-2.22934 -1.248,0 -2.26133,1.056 -2.26133,2.34667 0,1.29067 1.06667,2.34667 2.432,2.34667 1.35467,0 1.856,-0.896 1.856,-1.152 z m -0.544,-1.46134 h -3.18933 c 0.192,-0.992 0.88533,-1.632 1.70666,-1.632 0.61867,0 1.36534,0.288 1.48267,1.632 z"
         style=""
         id="path4605" />
      <path
         d="m 914.59517,569.8422 c 0,-0.224 -0.20267,-0.224 -0.33067,-0.224 h -1.54666 v -5.728 c 0,-0.256 -0.0533,-0.34134 -0.33067,-0.34134 h -1.74933 c -0.128,0 -0.34134,0 -0.34134,0.23467 0,0.21333 0.224,0.21333 0.33067,0.21333 h 1.54667 v 5.62134 h -1.536 c -0.128,0 -0.34134,0 -0.34134,0.224 0,0.224 0.224,0.224 0.33067,0.224 h 3.63733 c 0.11734,0 0.33067,0 0.33067,-0.224 z"
         style=""
         id="path4607" />
      <path
         d="m 920.19933,569.8422 c 0,-0.224 -0.20266,-0.224 -0.33066,-0.224 H 918.322 v -5.728 c 0,-0.256 -0.0533,-0.34134 -0.33067,-0.34134 H 916.242 c -0.128,0 -0.34133,0 -0.34133,0.23467 0,0.21333 0.224,0.21333 0.33066,0.21333 h 1.54667 v 5.62134 h -1.536 c -0.128,0 -0.34133,0 -0.34133,0.224 0,0.224 0.224,0.224 0.33066,0.224 h 3.63734 c 0.11733,0 0.33066,0 0.33066,-0.224 z"
         style=""
         id="path4609" />
      <path
         d="m 925.66484,569.8422 c 0,-0.224 -0.224,-0.224 -0.34133,-0.224 h -1.26934 v -3.744 c 0,-0.256 -0.0427,-0.34134 -0.33066,-0.34134 h -1.568 c -0.11734,0 -0.34134,0 -0.34134,0.224 0,0.224 0.224,0.224 0.34134,0.224 h 1.36533 v 3.63734 h -1.45067 c -0.128,0 -0.34133,0 -0.34133,0.224 0,0.224 0.224,0.224 0.34133,0.224 h 3.25334 c 0.11733,0 0.34133,0 0.34133,-0.224 z m -1.568,-5.78134 c 0,-0.256 -0.192,-0.448 -0.43733,-0.448 -0.24534,0 -0.43734,0.192 -0.43734,0.448 0,0.24534 0.192,0.43734 0.43734,0.43734 0.24533,0 0.43733,-0.192 0.43733,-0.43734 z"
         style=""
         id="path4611" />
      <path
         d="m 931.86634,565.89553 c 0,-0.21333 -0.192,-0.48 -0.69334,-0.48 -0.11733,0 -0.62933,0.0107 -1.16266,0.40533 -0.23467,-0.16 -0.59734,-0.352 -1.07734,-0.352 -0.97066,0 -1.70666,0.768 -1.70666,1.65334 0,0.448 0.17066,0.77866 0.37333,1.04533 -0.14933,0.224 -0.24533,0.448 -0.24533,0.74667 0,0.36266 0.13866,0.608 0.30933,0.832 -0.864,0.52266 -0.87467,1.22666 -0.87467,1.33333 0,0.90667 1.12,1.51467 2.464,1.51467 1.344,0 2.464,-0.61867 2.464,-1.51467 0,-0.37333 -0.192,-0.88533 -0.704,-1.16267 -0.13866,-0.0747 -0.58666,-0.29866 -1.54666,-0.29866 h -0.77867 c -0.0853,0 -0.23467,-0.0107 -0.33067,-0.0213 -0.192,0 -0.27733,-0.0107 -0.43733,-0.20266 -0.13867,-0.18134 -0.16,-0.45867 -0.16,-0.45867 0,-0.0533 0.032,-0.23467 0.128,-0.48 0.14933,0.096 0.53333,0.33067 1.04533,0.33067 0.94934,0 1.70667,-0.74667 1.70667,-1.664 0,-0.30934 -0.096,-0.608 -0.33067,-1.00267 0.352,-0.192 0.62934,-0.24533 0.88534,-0.26667 0.064,0.32 0.256,0.384 0.34133,0.384 0.13867,0 0.33067,-0.096 0.33067,-0.34133 z m -1.76,1.22667 c 0,0.69333 -0.544,1.22666 -1.17334,1.22666 -0.66133,0 -1.17333,-0.576 -1.17333,-1.216 0,-0.69333 0.544,-1.22666 1.17333,-1.22666 0.66134,0 1.17334,0.576 1.17334,1.216 z m 1.184,3.95733 c 0,0.52267 -0.864,1.06667 -2.03734,1.06667 -1.184,0 -2.03733,-0.544 -2.03733,-1.06667 0,-0.224 0.10667,-0.61867 0.50133,-0.864 0.288,-0.18133 0.39467,-0.192 1.23734,-0.192 1.04533,0 2.336,0.0533 2.336,1.056 z"
         style=""
         id="path4613" />
      <path
         d="m 936.96917,568.9782 c 0,-0.20267 -0.224,-0.20267 -0.26666,-0.20267 -0.128,0 -0.192,0.0107 -0.23467,0.11733 -0.29867,0.672 -0.93867,0.78934 -1.28,0.78934 -0.87467,0 -1.74933,-0.58667 -1.96267,-1.71734 h 3.41334 c 0.18133,0 0.33066,0 0.33066,-0.29866 0,-1.19467 -0.66133,-2.22934 -2.02666,-2.22934 -1.248,0 -2.26134,1.056 -2.26134,2.34667 0,1.29067 1.06667,2.34667 2.432,2.34667 1.35467,0 1.856,-0.896 1.856,-1.152 z m -0.544,-1.46134 h -3.18933 c 0.192,-0.992 0.88533,-1.632 1.70667,-1.632 0.61866,0 1.36533,0.288 1.48266,1.632 z"
         style=""
         id="path4615" />
      <path
         d="m 943.10667,569.8422 c 0,-0.224 -0.21333,-0.224 -0.34133,-0.224 h -0.59733 v -2.67734 c 0,-1.024 -0.512,-1.472 -1.32267,-1.472 -0.69333,0 -1.16267,0.352 -1.55733,0.736 0,-0.53333 0,-0.672 -0.33067,-0.672 h -0.8 c -0.128,0 -0.34133,0 -0.34133,0.23467 0,0.21333 0.21333,0.21333 0.33066,0.21333 h 0.608 v 3.63734 h -0.59733 c -0.128,0 -0.34133,0 -0.34133,0.224 0,0.224 0.21333,0.224 0.33066,0.224 h 1.74934 c 0.11733,0 0.33066,0 0.33066,-0.224 0,-0.224 -0.21333,-0.224 -0.34133,-0.224 h -0.59733 v -2.06934 c 0,-1.184 0.88533,-1.632 1.49333,-1.632 0.66133,0 0.85333,0.34134 0.85333,1.088 v 2.61334 h -0.544 c -0.128,0 -0.34133,0 -0.34133,0.224 0,0.224 0.224,0.224 0.34133,0.224 h 1.68534 c 0.11733,0 0.33066,0 0.33066,-0.224 z"
         style=""
         id="path4617" />
      <path
         d="m 948.2095,568.9782 c 0,-0.20267 -0.23466,-0.20267 -0.27733,-0.20267 -0.10667,0 -0.17067,0.0107 -0.224,0.0853 -0.11733,0.24534 -0.37333,0.82134 -1.23733,0.82134 -0.992,0 -1.83467,-0.82134 -1.83467,-1.888 0,-0.56534 0.32,-1.90934 1.89867,-1.90934 0.27733,0 0.77866,0.096 0.77866,0.21334 0,0.29866 0.16,0.42666 0.37334,0.42666 0.20266,0 0.384,-0.14933 0.384,-0.39466 0,-0.62934 -1.07734,-0.69334 -1.536,-0.69334 -1.81334,0 -2.44267,1.42934 -2.44267,2.35734 0,1.25866 0.992,2.336 2.31467,2.336 1.42933,0 1.80266,-0.98134 1.80266,-1.152 z"
         style=""
         id="path4619" />
      <path
         d="m 953.78167,568.9782 c 0,-0.20267 -0.224,-0.20267 -0.26666,-0.20267 -0.128,0 -0.192,0.0107 -0.23467,0.11733 -0.29867,0.672 -0.93867,0.78934 -1.28,0.78934 -0.87467,0 -1.74933,-0.58667 -1.96267,-1.71734 h 3.41334 c 0.18133,0 0.33066,0 0.33066,-0.29866 0,-1.19467 -0.66133,-2.22934 -2.02666,-2.22934 -1.248,0 -2.26134,1.056 -2.26134,2.34667 0,1.29067 1.06667,2.34667 2.432,2.34667 1.35467,0 1.856,-0.896 1.856,-1.152 z m -0.544,-1.46134 h -3.18933 c 0.192,-0.992 0.88533,-1.632 1.70667,-1.632 0.61866,0 1.36533,0.288 1.48266,1.632 z"
         style=""
         id="path4621" />
    </g>
    <g
       aria-label="Autonomy"
       transform="matrix(0.26458333,0,0,0.26458333,-508.35618,-74.762379)"
       style="font-style:normal;font-variant:normal;font-weight:normal;font-stretch:normal;font-size:10.66666698px;line-height:1.25;font-family:'Latin Modern Mono Light';-inkscape-font-specification:'Latin Modern Mono Light, ';letter-spacing:0px;word-spacing:0px;display:inline;opacity:1;fill:#000000;fill-opacity:1;stroke:none"
       id="flowRoot4632">
      <path
         d="m 853.28,569.8422 c 0,-0.096 -0.032,-0.17067 -0.13867,-0.21334 -0.064,-0.0107 -0.27733,-0.0107 -0.50133,-0.0107 l -1.35467,-5.856 c -0.0853,-0.34134 -0.21333,-0.34134 -0.49066,-0.34134 -0.256,0 -0.40534,0 -0.49067,0.33067 l -1.35467,5.86667 c -0.224,0 -0.448,0 -0.512,0.0107 -0.0853,0.0427 -0.128,0.11734 -0.128,0.21334 0,0.224 0.23467,0.224 0.36267,0.224 h 1.13067 c 0.14933,0 0.352,0 0.352,-0.224 0,-0.224 -0.192,-0.224 -0.64,-0.224 l 0.29866,-1.376 h 1.96267 l 0.29867,1.376 c -0.448,0 -0.64,0 -0.64,0.224 0,0.224 0.20266,0.224 0.352,0.224 h 1.12 c 0.13866,0 0.37333,0 0.37333,-0.224 z m -1.62133,-2.048 h -1.728 l 0.832,-3.92534 h 0.0747 z"
         style=""
         id="path4570" />
      <path
         d="m 859.04417,569.83153 c 0,-0.21333 -0.21334,-0.21333 -0.33067,-0.21333 h -0.608 v -3.744 c 0,-0.256 -0.0427,-0.34134 -0.33067,-0.34134 h -0.8 c -0.128,0 -0.34133,0 -0.34133,0.23467 0,0.21333 0.21333,0.21333 0.33067,0.21333 h 0.608 v 2.464 c 0,1.088 -0.97067,1.23734 -1.36534,1.23734 -0.98133,0 -0.98133,-0.42667 -0.98133,-0.832 v -2.976 c 0,-0.256 -0.0427,-0.34134 -0.33067,-0.34134 h -0.8 c -0.128,0 -0.34133,0 -0.34133,0.23467 0,0.21333 0.21333,0.21333 0.33067,0.21333 h 0.608 v 2.93334 c 0,0.98133 0.704,1.216 1.45066,1.216 0.42667,0 0.864,-0.10667 1.41867,-0.52267 0.0107,0.45867 0.192,0.45867 0.34133,0.45867 h 0.8 c 0.128,0 0.34134,0 0.34134,-0.23467 z"
         style=""
         id="path4572" />
      <path
         d="m 863.955,568.7862 c 0,-0.14934 0,-0.32 -0.27733,-0.32 -0.26667,0 -0.26667,0.17066 -0.26667,0.30933 -0.0107,0.77867 -0.71467,0.90667 -1.00267,0.90667 -0.96,0 -0.96,-0.65067 -0.96,-0.96 v -2.74134 h 1.92 c 0.11734,0 0.33067,0 0.33067,-0.21333 0,-0.23467 -0.20267,-0.23467 -0.33067,-0.23467 h -1.92 v -1.01333 c 0,-0.14933 0,-0.34133 -0.26666,-0.34133 -0.26667,0 -0.26667,0.18133 -0.26667,0.34133 v 1.01333 h -1.07733 c -0.128,0 -0.34134,0 -0.34134,0.23467 0,0.21333 0.21334,0.21333 0.33067,0.21333 h 1.088 v 2.80534 c 0,0.98133 0.69333,1.344 1.44,1.344 0.75733,0 1.6,-0.42667 1.6,-1.344 z"
         style=""
         id="path4574" />
      <path
         d="m 869.76183,567.7942 c 0,-1.312 -0.98133,-2.35734 -2.15466,-2.35734 -1.17334,0 -2.15467,1.04534 -2.15467,2.35734 0,1.33333 1.00267,2.336 2.15467,2.336 1.152,0 2.15466,-1.01334 2.15466,-2.336 z m -0.544,-0.0747 c 0,1.088 -0.74666,1.96267 -1.61066,1.96267 -0.87467,0 -1.61067,-0.87467 -1.61067,-1.96267 0,-1.07733 0.77867,-1.83467 1.61067,-1.83467 0.84266,0 1.61066,0.75734 1.61066,1.83467 z"
         style=""
         id="path4576" />
      <path
         d="m 875.85667,569.8422 c 0,-0.224 -0.21334,-0.224 -0.34134,-0.224 H 874.918 v -2.67734 c 0,-1.024 -0.512,-1.472 -1.32267,-1.472 -0.69333,0 -1.16266,0.352 -1.55733,0.736 0,-0.53333 0,-0.672 -0.33067,-0.672 h -0.8 c -0.128,0 -0.34133,0 -0.34133,0.23467 0,0.21333 0.21333,0.21333 0.33067,0.21333 h 0.608 v 3.63734 h -0.59734 c -0.128,0 -0.34133,0 -0.34133,0.224 0,0.224 0.21333,0.224 0.33067,0.224 h 1.74933 c 0.11733,0 0.33067,0 0.33067,-0.224 0,-0.224 -0.21334,-0.224 -0.34134,-0.224 H 872.038 v -2.06934 c 0,-1.184 0.88533,-1.632 1.49333,-1.632 0.66134,0 0.85334,0.34134 0.85334,1.088 v 2.61334 h -0.544 c -0.128,0 -0.34134,0 -0.34134,0.224 0,0.224 0.224,0.224 0.34134,0.224 h 1.68533 c 0.11733,0 0.33067,0 0.33067,-0.224 z"
         style=""
         id="path4578" />
      <path
         d="m 880.97017,567.7942 c 0,-1.312 -0.98133,-2.35734 -2.15467,-2.35734 -1.17333,0 -2.15466,1.04534 -2.15466,2.35734 0,1.33333 1.00266,2.336 2.15466,2.336 1.152,0 2.15467,-1.01334 2.15467,-2.336 z m -0.544,-0.0747 c 0,1.088 -0.74667,1.96267 -1.61067,1.96267 -0.87466,0 -1.61066,-0.87467 -1.61066,-1.96267 0,-1.07733 0.77866,-1.83467 1.61066,-1.83467 0.84267,0 1.61067,0.75734 1.61067,1.83467 z"
         style=""
         id="path4580" />
      <path
         d="m 887.10767,569.8422 c 0,-0.224 -0.18134,-0.224 -0.608,-0.224 v -2.784 c 0,-0.20267 -0.0213,-1.36534 -0.88534,-1.36534 -0.30933,0 -0.72533,0.128 -1.12,0.68267 -0.224,-0.50133 -0.49066,-0.68267 -0.81066,-0.68267 -0.33067,0 -0.608,0.13867 -1.024,0.52267 -0.032,-0.45867 -0.20267,-0.45867 -0.352,-0.45867 h -0.352 c -0.11734,0 -0.34134,0 -0.34134,0.224 0,0.224 0.18134,0.224 0.608,0.224 v 3.63734 c -0.42666,0 -0.608,0 -0.608,0.224 0,0.224 0.23467,0.224 0.34134,0.224 h 0.97066 c 0.128,0 0.34134,0 0.34134,-0.224 0,-0.224 -0.18134,-0.224 -0.608,-0.224 v -2.09067 c 0,-1.06667 0.49066,-1.61067 0.98133,-1.61067 0.288,0 0.49067,0.192 0.49067,1.01334 v 2.688 c -0.26667,0 -0.45867,0 -0.45867,0.224 0,0.224 0.224,0.224 0.34133,0.224 h 0.82134 c 0.128,0 0.34133,0 0.34133,-0.224 0,-0.224 -0.18133,-0.224 -0.608,-0.224 v -2.09067 c 0,-1.06667 0.50133,-1.61067 1.00267,-1.61067 0.288,0 0.49066,0.192 0.49066,1.01334 v 2.688 c -0.26666,0 -0.45866,0 -0.45866,0.224 0,0.224 0.224,0.224 0.34133,0.224 h 0.82133 c 0.11734,0 0.34134,0 0.34134,-0.224 z"
         style=""
         id="path4582" />
      <path
         d="m 892.54117,565.76753 c 0,-0.23467 -0.20267,-0.23467 -0.33067,-0.23467 h -1.29067 c -0.11733,0 -0.33066,0 -0.33066,0.224 0,0.224 0.20266,0.224 0.33066,0.224 h 0.42667 l -1.22667,3.712 -1.408,-3.712 h 0.43734 c 0.11733,0 0.33066,0 0.33066,-0.21333 0,-0.23467 -0.20266,-0.23467 -0.33066,-0.23467 h -1.29067 c -0.128,0 -0.33067,0 -0.33067,0.23467 0,0.21333 0.21334,0.21333 0.33067,0.21333 h 0.37333 c 0,0 1.664,4.192 1.65334,4.224 0,0 -0.29867,0.94934 -0.448,1.22667 -0.34134,0.65067 -0.59734,0.69333 -0.91734,0.69333 -0.064,0 -0.128,-0.13866 -0.128,-0.13866 0,0 0.064,-0.096 0.064,-0.21334 0,-0.21333 -0.14933,-0.36266 -0.36266,-0.36266 -0.23467,0 -0.37334,0.16 -0.37334,0.37333 0,0.40533 0.33067,0.8 0.8,0.8 0.992,0 1.51467,-1.38667 1.55734,-1.504 l 1.728,-5.09867 h 0.40533 c 0.11733,0 0.33067,0 0.33067,-0.21333 z"
         style=""
         id="path4584" />
    </g>
    <g
       aria-label="Arbitration"
       transform="matrix(0.26458333,0,0,0.26458333,-519.16673,-91.950249)"
       style="font-style:normal;font-variant:normal;font-weight:normal;font-stretch:normal;font-size:10.66666698px;line-height:1.25;font-family:'Latin Modern Mono Light';-inkscape-font-specification:'Latin Modern Mono Light, ';letter-spacing:0px;word-spacing:0px;display:inline;opacity:1;fill:#000000;fill-opacity:1;stroke:none"
       id="flowRoot4640">
      <path
         d="m 853.28,569.8422 c 0,-0.096 -0.032,-0.17067 -0.13867,-0.21334 -0.064,-0.0107 -0.27733,-0.0107 -0.50133,-0.0107 l -1.35467,-5.856 c -0.0853,-0.34134 -0.21333,-0.34134 -0.49066,-0.34134 -0.256,0 -0.40534,0 -0.49067,0.33067 l -1.35467,5.86667 c -0.224,0 -0.448,0 -0.512,0.0107 -0.0853,0.0427 -0.128,0.11734 -0.128,0.21334 0,0.224 0.23467,0.224 0.36267,0.224 h 1.13067 c 0.14933,0 0.352,0 0.352,-0.224 0,-0.224 -0.192,-0.224 -0.64,-0.224 l 0.29866,-1.376 h 1.96267 l 0.29867,1.376 c -0.448,0 -0.64,0 -0.64,0.224 0,0.224 0.20266,0.224 0.352,0.224 h 1.12 c 0.13866,0 0.37333,0 0.37333,-0.224 z m -1.62133,-2.048 h -1.728 l 0.832,-3.92534 h 0.0747 z"
         style=""
         id="path4547" />
      <path
         d="m 858.76683,566.04486 c 0,-0.20266 -0.128,-0.576 -0.93866,-0.576 -0.53334,0 -1.20534,0.192 -1.984,1.07734 v -0.672 c 0,-0.256 -0.0427,-0.34134 -0.33067,-0.34134 h -1.20533 c -0.128,0 -0.33067,0 -0.33067,0.224 0,0.224 0.20267,0.224 0.33067,0.224 h 1.00266 v 3.63734 h -1.00266 c -0.128,0 -0.33067,0 -0.33067,0.21333 0,0.23467 0.20267,0.23467 0.33067,0.23467 h 2.86933 c 0.128,0 0.34133,0 0.34133,-0.224 0,-0.224 -0.21333,-0.224 -0.34133,-0.224 h -1.33333 v -1.49334 c 0,-1.088 0.69333,-2.208 2.208,-2.208 0,0.30934 0.14933,0.49067 0.36266,0.49067 0.192,0 0.352,-0.13867 0.352,-0.36267 z"
         style=""
         id="path4549" />
      <path
         d="m 864.38167,567.7942 c 0,-1.29067 -0.928,-2.32534 -2.03734,-2.32534 -0.50133,0 -0.97066,0.192 -1.51466,0.68267 v -2.26133 c 0,-0.256 -0.0427,-0.34134 -0.33067,-0.34134 h -0.8 c -0.128,0 -0.34133,0 -0.34133,0.23467 0,0.21333 0.21333,0.21333 0.33066,0.21333 h 0.608 v 5.728 c 0,0.16 0,0.34134 0.27734,0.34134 0.256,0 0.256,-0.18134 0.256,-0.66134 0.61866,0.62934 1.06666,0.72534 1.39733,0.72534 1.14133,0 2.15467,-1.00267 2.15467,-2.336 z m -0.53334,0 c 0,1.13066 -0.832,1.888 -1.65333,1.888 -0.93867,0 -1.36533,-1.04534 -1.36533,-1.61067 v -0.81067 c 0,-0.704 0.69333,-1.344 1.45066,-1.344 0.87467,0 1.568,0.85334 1.568,1.87734 z"
         style=""
         id="path4551" />
      <path
         d="m 869.62317,569.8422 c 0,-0.224 -0.224,-0.224 -0.34134,-0.224 h -1.26933 v -3.744 c 0,-0.256 -0.0427,-0.34134 -0.33067,-0.34134 h -1.568 c -0.11733,0 -0.34133,0 -0.34133,0.224 0,0.224 0.224,0.224 0.34133,0.224 h 1.36534 v 3.63734 h -1.45067 c -0.128,0 -0.34133,0 -0.34133,0.224 0,0.224 0.224,0.224 0.34133,0.224 h 3.25333 c 0.11734,0 0.34134,0 0.34134,-0.224 z m -1.568,-5.78134 c 0,-0.256 -0.192,-0.448 -0.43734,-0.448 -0.24533,0 -0.43733,0.192 -0.43733,0.448 0,0.24534 0.192,0.43734 0.43733,0.43734 0.24534,0 0.43734,-0.192 0.43734,-0.43734 z"
         style=""
         id="path4553" />
      <path
         d="m 875.16333,568.7862 c 0,-0.14934 0,-0.32 -0.27733,-0.32 -0.26667,0 -0.26667,0.17066 -0.26667,0.30933 -0.0107,0.77867 -0.71466,0.90667 -1.00266,0.90667 -0.96,0 -0.96,-0.65067 -0.96,-0.96 v -2.74134 h 1.92 c 0.11733,0 0.33066,0 0.33066,-0.21333 0,-0.23467 -0.20266,-0.23467 -0.33066,-0.23467 h -1.92 v -1.01333 c 0,-0.14933 0,-0.34133 -0.26667,-0.34133 -0.26667,0 -0.26667,0.18133 -0.26667,0.34133 v 1.01333 H 871.046 c -0.128,0 -0.34133,0 -0.34133,0.23467 0,0.21333 0.21333,0.21333 0.33066,0.21333 h 1.088 v 2.80534 c 0,0.98133 0.69334,1.344 1.44,1.344 0.75734,0 1.6,-0.42667 1.6,-1.344 z"
         style=""
         id="path4555" />
      <path
         d="m 881.1835,566.04486 c 0,-0.20266 -0.128,-0.576 -0.93866,-0.576 -0.53334,0 -1.20534,0.192 -1.984,1.07734 v -0.672 c 0,-0.256 -0.0427,-0.34134 -0.33067,-0.34134 h -1.20533 c -0.128,0 -0.33067,0 -0.33067,0.224 0,0.224 0.20267,0.224 0.33067,0.224 h 1.00266 v 3.63734 h -1.00266 c -0.128,0 -0.33067,0 -0.33067,0.21333 0,0.23467 0.20267,0.23467 0.33067,0.23467 h 2.86933 c 0.128,0 0.34133,0 0.34133,-0.224 0,-0.224 -0.21333,-0.224 -0.34133,-0.224 h -1.33333 v -1.49334 c 0,-1.088 0.69333,-2.208 2.208,-2.208 0,0.30934 0.14933,0.49067 0.36266,0.49067 0.192,0 0.352,-0.13867 0.352,-0.36267 z"
         style=""
         id="path4557" />
      <path
         d="m 887.20367,569.83153 c 0,-0.21333 -0.21334,-0.21333 -0.34134,-0.21333 -0.43733,0 -0.59733,-0.064 -0.768,-0.128 v -2.45334 c 0,-0.74666 -0.576,-1.6 -2.06933,-1.6 -0.43733,0 -1.49333,0 -1.49333,0.69334 0,0.256 0.18133,0.39466 0.384,0.39466 0.128,0 0.37333,-0.0747 0.384,-0.39466 0,-0.20267 0.40533,-0.24534 0.736,-0.24534 0.90666,0 1.51466,0.384 1.51466,1.344 -1.97333,0.032 -3.30666,0.52267 -3.30666,1.536 0,0.71467 0.66133,1.36534 1.71733,1.36534 0.384,0 1.04533,-0.0747 1.632,-0.45867 0.27733,0.39467 0.77867,0.39467 1.16267,0.39467 0.23466,0 0.448,0 0.448,-0.23467 z m -1.65334,-1.13067 c 0,0.288 0,0.55467 -0.49066,0.77867 -0.416,0.20267 -0.93867,0.20267 -1.024,0.20267 -0.75734,0 -1.248,-0.43734 -1.248,-0.91734 0,-0.56533 0.97066,-1.056 2.76266,-1.10933 z"
         style=""
         id="path4559" />
      <path
         d="m 891.97583,568.7862 c 0,-0.14934 0,-0.32 -0.27733,-0.32 -0.26667,0 -0.26667,0.17066 -0.26667,0.30933 -0.0107,0.77867 -0.71466,0.90667 -1.00266,0.90667 -0.96,0 -0.96,-0.65067 -0.96,-0.96 v -2.74134 h 1.92 c 0.11733,0 0.33066,0 0.33066,-0.21333 0,-0.23467 -0.20266,-0.23467 -0.33066,-0.23467 h -1.92 v -1.01333 c 0,-0.14933 0,-0.34133 -0.26667,-0.34133 -0.26667,0 -0.26667,0.18133 -0.26667,0.34133 v 1.01333 h -1.07733 c -0.128,0 -0.34133,0 -0.34133,0.23467 0,0.21333 0.21333,0.21333 0.33066,0.21333 h 1.088 v 2.80534 c 0,0.98133 0.69334,1.344 1.44,1.344 0.75734,0 1.6,-0.42667 1.6,-1.344 z"
         style=""
         id="path4561" />
      <path
         d="m 897.644,569.8422 c 0,-0.224 -0.224,-0.224 -0.34133,-0.224 h -1.26933 v -3.744 c 0,-0.256 -0.0427,-0.34134 -0.33067,-0.34134 h -1.568 c -0.11733,0 -0.34133,0 -0.34133,0.224 0,0.224 0.224,0.224 0.34133,0.224 H 895.5 v 3.63734 h -1.45066 c -0.128,0 -0.34134,0 -0.34134,0.224 0,0.224 0.224,0.224 0.34134,0.224 h 3.25333 c 0.11733,0 0.34133,0 0.34133,-0.224 z m -1.568,-5.78134 c 0,-0.256 -0.192,-0.448 -0.43733,-0.448 -0.24533,0 -0.43733,0.192 -0.43733,0.448 0,0.24534 0.192,0.43734 0.43733,0.43734 0.24533,0 0.43733,-0.192 0.43733,-0.43734 z"
         style=""
         id="path4563" />
      <path
         d="m 903.38684,567.7942 c 0,-1.312 -0.98134,-2.35734 -2.15467,-2.35734 -1.17333,0 -2.15467,1.04534 -2.15467,2.35734 0,1.33333 1.00267,2.336 2.15467,2.336 1.152,0 2.15467,-1.01334 2.15467,-2.336 z m -0.544,-0.0747 c 0,1.088 -0.74667,1.96267 -1.61067,1.96267 -0.87467,0 -1.61067,-0.87467 -1.61067,-1.96267 0,-1.07733 0.77867,-1.83467 1.61067,-1.83467 0.84267,0 1.61067,0.75734 1.61067,1.83467 z"
         style=""
         id="path4565" />
      <path
         d="m 909.48167,569.8422 c 0,-0.224 -0.21333,-0.224 -0.34133,-0.224 h -0.59733 v -2.67734 c 0,-1.024 -0.512,-1.472 -1.32267,-1.472 -0.69333,0 -1.16267,0.352 -1.55733,0.736 0,-0.53333 0,-0.672 -0.33067,-0.672 h -0.8 c -0.128,0 -0.34133,0 -0.34133,0.23467 0,0.21333 0.21333,0.21333 0.33066,0.21333 h 0.608 v 3.63734 h -0.59733 c -0.128,0 -0.34133,0 -0.34133,0.224 0,0.224 0.21333,0.224 0.33066,0.224 h 1.74934 c 0.11733,0 0.33066,0 0.33066,-0.224 0,-0.224 -0.21333,-0.224 -0.34133,-0.224 h -0.59733 v -2.06934 c 0,-1.184 0.88533,-1.632 1.49333,-1.632 0.66133,0 0.85333,0.34134 0.85333,1.088 v 2.61334 h -0.544 c -0.128,0 -0.34133,0 -0.34133,0.224 0,0.224 0.224,0.224 0.34133,0.224 h 1.68534 c 0.11733,0 0.33066,0 0.33066,-0.224 z"
         style=""
         id="path4567" />
    </g>
    <g
       aria-label="Cooperation"
       transform="matrix(0.26458333,0,0,0.26458333,-514.98627,-107.92893)"
       style="font-style:normal;font-variant:normal;font-weight:normal;font-stretch:normal;font-size:10.66666698px;line-height:1.25;font-family:'Latin Modern Mono Light';-inkscape-font-specification:'Latin Modern Mono Light, ';letter-spacing:0px;word-spacing:0px;display:inline;opacity:1;fill:#000000;fill-opacity:1;stroke:none"
       id="flowRoot4648">
      <path
         d="m 853.13067,568.32753 c 0,-0.256 -0.192,-0.256 -0.27734,-0.256 -0.064,0 -0.24533,0 -0.26666,0.21333 -0.0747,1.16267 -1.04534,1.45067 -1.52534,1.45067 -1.04533,0 -2.06933,-1.20533 -2.06933,-2.93333 0,-1.71734 1.03467,-2.92267 2.05867,-2.92267 0.704,0 1.36533,0.53333 1.52533,1.49333 0.032,0.13867 0.0533,0.26667 0.27733,0.26667 0.27734,0 0.27734,-0.17067 0.27734,-0.34133 v -1.52534 c 0,-0.128 0,-0.34133 -0.224,-0.34133 -0.10667,0 -0.17067,0.0747 -0.21334,0.128 -0.0107,0.0427 -0.0213,0.0853 -0.224,0.45867 -0.448,-0.384 -0.928,-0.58667 -1.46133,-0.58667 -1.376,0 -2.54933,1.42933 -2.54933,3.37067 0,1.952 1.17333,3.38133 2.56,3.38133 1.20533,0 2.112,-0.91733 2.112,-1.856 z"
         style=""
         id="path4524" />
      <path
         d="m 858.5535,567.7942 c 0,-1.312 -0.98133,-2.35734 -2.15467,-2.35734 -1.17333,0 -2.15466,1.04534 -2.15466,2.35734 0,1.33333 1.00266,2.336 2.15466,2.336 1.152,0 2.15467,-1.01334 2.15467,-2.336 z m -0.544,-0.0747 c 0,1.088 -0.74667,1.96267 -1.61067,1.96267 -0.87466,0 -1.61066,-0.87467 -1.61066,-1.96267 0,-1.07733 0.77866,-1.83467 1.61066,-1.83467 0.84267,0 1.61067,0.75734 1.61067,1.83467 z"
         style=""
         id="path4526" />
      <path
         d="m 864.15767,567.7942 c 0,-1.312 -0.98134,-2.35734 -2.15467,-2.35734 -1.17333,0 -2.15467,1.04534 -2.15467,2.35734 0,1.33333 1.00267,2.336 2.15467,2.336 1.152,0 2.15467,-1.01334 2.15467,-2.336 z m -0.544,-0.0747 c 0,1.088 -0.74667,1.96267 -1.61067,1.96267 -0.87467,0 -1.61067,-0.87467 -1.61067,-1.96267 0,-1.07733 0.77867,-1.83467 1.61067,-1.83467 0.84267,0 1.61067,0.75734 1.61067,1.83467 z"
         style=""
         id="path4528" />
      <path
         d="m 869.98583,567.7942 c 0,-1.29067 -0.928,-2.32534 -2.03733,-2.32534 -0.50133,0 -0.97067,0.192 -1.51467,0.68267 0,-0.50133 -0.0107,-0.61867 -0.33066,-0.61867 h -0.8 c -0.128,0 -0.34134,0 -0.34134,0.23467 0,0.21333 0.21334,0.21333 0.33067,0.21333 h 0.608 v 6.08 h -0.59733 c -0.128,0 -0.34134,0 -0.34134,0.23467 0,0.224 0.21334,0.224 0.33067,0.224 h 1.74933 c 0.11734,0 0.33067,0 0.33067,-0.224 0,-0.23467 -0.21333,-0.23467 -0.34133,-0.23467 h -0.59734 v -2.656 c 0.61867,0.62934 1.06667,0.72534 1.39734,0.72534 1.14133,0 2.15466,-1.00267 2.15466,-2.336 z m -0.53333,0 c 0,1.13066 -0.832,1.888 -1.65333,1.888 -0.93867,0 -1.36534,-1.04534 -1.36534,-1.61067 v -0.81067 c 0,-0.704 0.69334,-1.344 1.45067,-1.344 0.87467,0 1.568,0.85334 1.568,1.87734 z"
         style=""
         id="path4530" />
      <path
         d="m 875.32333,568.9782 c 0,-0.20267 -0.224,-0.20267 -0.26666,-0.20267 -0.128,0 -0.192,0.0107 -0.23467,0.11733 -0.29867,0.672 -0.93867,0.78934 -1.28,0.78934 -0.87467,0 -1.74933,-0.58667 -1.96267,-1.71734 h 3.41334 c 0.18133,0 0.33066,0 0.33066,-0.29866 0,-1.19467 -0.66133,-2.22934 -2.02666,-2.22934 -1.248,0 -2.26134,1.056 -2.26134,2.34667 0,1.29067 1.06667,2.34667 2.432,2.34667 1.35467,0 1.856,-0.896 1.856,-1.152 z m -0.544,-1.46134 H 871.59 c 0.192,-0.992 0.88533,-1.632 1.70667,-1.632 0.61866,0 1.36533,0.288 1.48266,1.632 z"
         style=""
         id="path4532" />
      <path
         d="m 881.1835,566.04486 c 0,-0.20266 -0.128,-0.576 -0.93866,-0.576 -0.53334,0 -1.20534,0.192 -1.984,1.07734 v -0.672 c 0,-0.256 -0.0427,-0.34134 -0.33067,-0.34134 h -1.20533 c -0.128,0 -0.33067,0 -0.33067,0.224 0,0.224 0.20267,0.224 0.33067,0.224 h 1.00266 v 3.63734 h -1.00266 c -0.128,0 -0.33067,0 -0.33067,0.21333 0,0.23467 0.20267,0.23467 0.33067,0.23467 h 2.86933 c 0.128,0 0.34133,0 0.34133,-0.224 0,-0.224 -0.21333,-0.224 -0.34133,-0.224 h -1.33333 v -1.49334 c 0,-1.088 0.69333,-2.208 2.208,-2.208 0,0.30934 0.14933,0.49067 0.36266,0.49067 0.192,0 0.352,-0.13867 0.352,-0.36267 z"
         style=""
         id="path4534" />
      <path
         d="m 887.20367,569.83153 c 0,-0.21333 -0.21334,-0.21333 -0.34134,-0.21333 -0.43733,0 -0.59733,-0.064 -0.768,-0.128 v -2.45334 c 0,-0.74666 -0.576,-1.6 -2.06933,-1.6 -0.43733,0 -1.49333,0 -1.49333,0.69334 0,0.256 0.18133,0.39466 0.384,0.39466 0.128,0 0.37333,-0.0747 0.384,-0.39466 0,-0.20267 0.40533,-0.24534 0.736,-0.24534 0.90666,0 1.51466,0.384 1.51466,1.344 -1.97333,0.032 -3.30666,0.52267 -3.30666,1.536 0,0.71467 0.66133,1.36534 1.71733,1.36534 0.384,0 1.04533,-0.0747 1.632,-0.45867 0.27733,0.39467 0.77867,0.39467 1.16267,0.39467 0.23466,0 0.448,0 0.448,-0.23467 z m -1.65334,-1.13067 c 0,0.288 0,0.55467 -0.49066,0.77867 -0.416,0.20267 -0.93867,0.20267 -1.024,0.20267 -0.75734,0 -1.248,-0.43734 -1.248,-0.91734 0,-0.56533 0.97066,-1.056 2.76266,-1.10933 z"
         style=""
         id="path4536" />
      <path
         d="m 891.97583,568.7862 c 0,-0.14934 0,-0.32 -0.27733,-0.32 -0.26667,0 -0.26667,0.17066 -0.26667,0.30933 -0.0107,0.77867 -0.71466,0.90667 -1.00266,0.90667 -0.96,0 -0.96,-0.65067 -0.96,-0.96 v -2.74134 h 1.92 c 0.11733,0 0.33066,0 0.33066,-0.21333 0,-0.23467 -0.20266,-0.23467 -0.33066,-0.23467 h -1.92 v -1.01333 c 0,-0.14933 0,-0.34133 -0.26667,-0.34133 -0.26667,0 -0.26667,0.18133 -0.26667,0.34133 v 1.01333 h -1.07733 c -0.128,0 -0.34133,0 -0.34133,0.23467 0,0.21333 0.21333,0.21333 0.33066,0.21333 h 1.088 v 2.80534 c 0,0.98133 0.69334,1.344 1.44,1.344 0.75734,0 1.6,-0.42667 1.6,-1.344 z"
         style=""
         id="path4538" />
      <path
         d="m 897.644,569.8422 c 0,-0.224 -0.224,-0.224 -0.34133,-0.224 h -1.26933 v -3.744 c 0,-0.256 -0.0427,-0.34134 -0.33067,-0.34134 h -1.568 c -0.11733,0 -0.34133,0 -0.34133,0.224 0,0.224 0.224,0.224 0.34133,0.224 H 895.5 v 3.63734 h -1.45066 c -0.128,0 -0.34134,0 -0.34134,0.224 0,0.224 0.224,0.224 0.34134,0.224 h 3.25333 c 0.11733,0 0.34133,0 0.34133,-0.224 z m -1.568,-5.78134 c 0,-0.256 -0.192,-0.448 -0.43733,-0.448 -0.24533,0 -0.43733,0.192 -0.43733,0.448 0,0.24534 0.192,0.43734 0.43733,0.43734 0.24533,0 0.43733,-0.192 0.43733,-0.43734 z"
         style=""
         id="path4540" />
      <path
         d="m 903.38684,567.7942 c 0,-1.312 -0.98134,-2.35734 -2.15467,-2.35734 -1.17333,0 -2.15467,1.04534 -2.15467,2.35734 0,1.33333 1.00267,2.336 2.15467,2.336 1.152,0 2.15467,-1.01334 2.15467,-2.336 z m -0.544,-0.0747 c 0,1.088 -0.74667,1.96267 -1.61067,1.96267 -0.87467,0 -1.61067,-0.87467 -1.61067,-1.96267 0,-1.07733 0.77867,-1.83467 1.61067,-1.83467 0.84267,0 1.61067,0.75734 1.61067,1.83467 z"
         style=""
         id="path4542" />
      <path
         d="m 909.48167,569.8422 c 0,-0.224 -0.21333,-0.224 -0.34133,-0.224 h -0.59733 v -2.67734 c 0,-1.024 -0.512,-1.472 -1.32267,-1.472 -0.69333,0 -1.16267,0.352 -1.55733,0.736 0,-0.53333 0,-0.672 -0.33067,-0.672 h -0.8 c -0.128,0 -0.34133,0 -0.34133,0.23467 0,0.21333 0.21333,0.21333 0.33066,0.21333 h 0.608 v 3.63734 h -0.59733 c -0.128,0 -0.34133,0 -0.34133,0.224 0,0.224 0.21333,0.224 0.33066,0.224 h 1.74934 c 0.11733,0 0.33066,0 0.33066,-0.224 0,-0.224 -0.21333,-0.224 -0.34133,-0.224 h -0.59733 v -2.06934 c 0,-1.184 0.88533,-1.632 1.49333,-1.632 0.66133,0 0.85333,0.34134 0.85333,1.088 v 2.61334 h -0.544 c -0.128,0 -0.34133,0 -0.34133,0.224 0,0.224 0.224,0.224 0.34133,0.224 h 1.68534 c 0.11733,0 0.33066,0 0.33066,-0.224 z"
         style=""
         id="path4544" />
    </g>
    <path
       inkscape:connector-curvature="0"
       id="path4571"
       d="m -256.69675,36.965185 15.44059,6.395701 6.39571,15.440597 -6.39571,15.44059 -15.44059,6.395698 -15.4406,-6.395706 -6.3957,-15.440582 6.39571,-15.440597 z"
       inkscape:transform-center-y="-1.8624565e-006"
       inkscape:transform-center-x="3.7210873e-006"
       style="display:inline;opacity:1;fill:none;fill-opacity:1;stroke:#000000;stroke-width:0.19043157;stroke-linecap:round;stroke-miterlimit:4;stroke-dasharray:none;stroke-opacity:1" />
    <path
       style="display:inline;opacity:1;fill:none;fill-opacity:1;stroke:#000000;stroke-width:0.19043157;stroke-linecap:round;stroke-miterlimit:4;stroke-dasharray:none;stroke-opacity:1"
       inkscape:transform-center-x="3.7210873e-006"
       inkscape:transform-center-y="-1.8624565e-006"
       d="m -256.69675,41.248718 12.41168,5.141084 5.14108,12.411681 -5.14108,12.411674 -12.41168,5.141082 -12.41168,-5.141082 -5.14109,-12.411674 5.14109,-12.411681 z"
       id="path4666"
       inkscape:connector-curvature="0" />
    <path
       inkscape:connector-curvature="0"
       id="path4668"
       d="m -256.69675,45.907878 9.11716,3.776447 3.77644,9.117158 -3.77644,9.117151 -9.11716,3.776446 -9.11715,-3.776446 -3.77646,-9.117151 3.77646,-9.117158 z"
       inkscape:transform-center-y="-1.8624565e-006"
       inkscape:transform-center-x="3.7210873e-006"
       style="display:inline;opacity:1;fill:none;fill-opacity:1;stroke:#000000;stroke-width:0.19043157;stroke-linecap:round;stroke-miterlimit:4;stroke-dasharray:none;stroke-opacity:1" />
    <path
       style="display:inline;opacity:1;fill:none;fill-opacity:1;stroke:#000000;stroke-width:0.19043157;stroke-linecap:round;stroke-miterlimit:4;stroke-dasharray:none;stroke-opacity:1"
       inkscape:transform-center-x="-1.2789127e-006"
       inkscape:transform-center-y="-1.8624565e-006"
       d="m -256.69675,50.281782 6.02433,2.495365 2.49537,6.024336 -2.49537,6.024328 -6.02433,2.495365 -6.02433,-2.495365 -2.49537,-6.024328 2.49537,-6.024336 z"
       id="path4670"
       inkscape:connector-curvature="0" />
    <path
       inkscape:connector-curvature="0"
       id="path4672"
       d="m -256.69675,54.465516 3.06599,1.269976 1.26997,3.065991 -1.26997,3.065982 -3.06599,1.269976 -3.06599,-1.269976 -1.26997,-3.065982 1.26997,-3.065991 z"
       inkscape:transform-center-y="-1.8624565e-006"
       inkscape:transform-center-x="-1.2789127e-006"
       style="display:inline;opacity:1;fill:none;fill-opacity:1;stroke:#000000;stroke-width:0.19043157;stroke-linecap:round;stroke-miterlimit:4;stroke-dasharray:none;stroke-opacity:1" />
    <path
       inkscape:connector-curvature="0"
       id="path4674"
       d="M -256.69675,36.965185 V 80.637771"
       style="display:inline;opacity:1;fill:none;stroke:#000000;stroke-width:0.19043157;stroke-linecap:butt;stroke-linejoin:miter;stroke-miterlimit:4;stroke-dasharray:none;stroke-opacity:1" />
    <path
       style="display:inline;opacity:1;fill:none;stroke:#000000;stroke-width:0.19043157;stroke-linecap:butt;stroke-linejoin:miter;stroke-miterlimit:4;stroke-dasharray:none;stroke-opacity:1"
       d="m -241.25616,43.360886 -30.88118,30.881187"
       id="path4676"
       inkscape:connector-curvature="0" />
    <path
       inkscape:connector-curvature="0"
       id="path4678"
       d="m -234.86046,58.801475 -43.67258,8e-6"
       style="display:inline;opacity:1;fill:none;stroke:#000000;stroke-width:0.19043157;stroke-linecap:butt;stroke-linejoin:miter;stroke-miterlimit:4;stroke-dasharray:none;stroke-opacity:1" />
    <path
       style="display:inline;opacity:1;fill:none;stroke:#000000;stroke-width:0.19043157;stroke-linecap:butt;stroke-linejoin:miter;stroke-miterlimit:4;stroke-dasharray:none;stroke-opacity:1"
       d="M -241.25616,74.242065 -272.13734,43.360893"
       id="path4680"
       inkscape:connector-curvature="0" />
    <path
       inkscape:connector-curvature="0"
       id="path4682"
       d="m -269.59036,58.801483 4.53123,-8.36238 8.36238,-1.504684 8.62205,1.245001 4.42318,8.622055 -1.63568,11.409549 -11.40955,0.619797 -7.87436,-4.154985 z"
       style="display:inline;opacity:0.6;fill:#672178;stroke:none;stroke-width:0.19043157px;stroke-linecap:butt;stroke-linejoin:miter;stroke-opacity:1" />
  </g>
</svg>
